<svg width="241" height="324" viewBox="0 0 241 324" fill="none" xmlns="http://www.w3.org/2000/svg">
<g clip-path="url(#clip0_1_159)">
<g opacity="0.7">
<path opacity="0.7" fill-rule="evenodd" clip-rule="evenodd" d="M75.902 119.543C85.6943 119.035 97.8047 124.748 98.8495 135.385C99.6084 143.114 99.3734 150.821 100.548 158.539C101.487 164.707 103.473 170.628 106.182 176.246C108.787 181.649 114.19 186.248 115.596 192.02C116.491 195.697 115.99 200.871 114.755 204.468C113.252 208.842 114.051 208.496 117.044 212.166C122.909 219.358 128.191 226.733 131.926 235.323C137.306 247.695 140.833 262.157 138.836 275.7C138.582 277.42 138.281 283.591 135.911 284.023C133.264 284.505 134.502 280.975 134.643 279.835C135.544 272.56 136.344 266.201 135.258 258.812C131.066 230.304 110.602 211.521 97.2773 187.326C96.5448 186.078 94.9984 183.107 93.9232 181.147C92.2257 178.052 90.5192 172.163 88.2212 169.869C83.8933 165.546 87.8722 174.237 88.7155 175.896C89.7817 177.994 90.9547 180.225 92.0473 182.064C97.0467 190.588 102.627 199.893 107.79 208.679C85.4595 213.764 69.7327 186.935 63.7402 169.296C58.8028 154.764 52.8954 120.787 75.902 119.543Z" fill="#0D6F1D"/>
<path opacity="0.7" fill-rule="evenodd" clip-rule="evenodd" d="M207.149 92.5559C190.779 93.8539 180.27 104.649 175.378 119.748C172.741 127.885 172.439 136.244 170.974 144.605C168.77 157.186 164.027 166.72 154.759 175.683C151.888 178.459 149.773 181.309 148.269 184.358C145.284 187.402 142.685 190.848 140.776 195.06C138.337 200.439 137.647 206.893 140.463 212.255C141.22 213.697 143.109 216.591 145.066 217.906C137.738 233.504 133.708 250.587 134.163 267.648C134.437 277.947 134.94 288.25 135.527 298.537C135.685 301.299 136.585 305.859 137.937 301.227C139.174 296.991 137.623 290.339 137.479 285.913C136.781 264.351 136.183 244.745 145.065 224.6C145.996 222.489 146.984 220.394 148.012 218.316C148.073 218.281 148.129 218.239 148.185 218.198C148.225 218.228 148.26 218.261 148.299 218.29C148.365 218.173 148.455 218.034 148.56 217.878C148.855 217.574 149.113 217.19 149.357 216.761C150.145 215.67 151.037 214.388 151.042 213.686C151.042 213.681 151.039 213.672 151.039 213.667C156.537 204.697 162.834 196.222 169.267 187.912C169.219 187.973 176.244 178.413 175.158 183.7C174.634 186.247 169.467 191.099 167.379 193.798C162.763 199.801 157.341 207.408 152.836 214.764C152.229 215.113 151.373 216.822 150.753 218.095C150.411 218.741 150.092 219.391 149.778 219.958C165.742 225.229 178.161 214.611 186.628 202.262C186.639 202.247 186.648 202.232 186.657 202.218C189.234 198.805 191.874 195.417 195.172 192.719C200.674 188.218 206.566 187.424 213.053 185.209C230.743 179.168 238.264 156.256 240.653 139.255C243.348 120.075 230.165 90.6647 207.149 92.5559Z" fill="#89CC94"/>
<path opacity="0.7" fill-rule="evenodd" clip-rule="evenodd" d="M174.813 38.8446C158.012 56.3197 149.895 80.558 143.468 103.344C136.29 128.794 131.548 154.637 131.366 181.098C131.247 198.482 130.774 215.975 131.789 233.34C132.149 239.507 132.764 245.684 133.742 251.785C133.823 252.286 136.011 265.908 138.105 262.734C139.296 260.929 135.862 248.603 135.602 246.55C134.143 234.988 133.804 223.34 133.875 211.694C133.992 192.519 133.426 173.442 135.371 154.337C135.661 151.485 135.89 148.489 136.568 145.698C137.288 142.732 136.371 144.027 138.716 142.852C140.994 141.71 143.809 141.873 146.173 140.441C155.55 134.759 160.346 120.163 164.079 110.587C168.349 99.6355 170.944 87.9575 173.017 76.4328C174.539 67.9653 175.627 59.5493 176.243 50.9728C176.437 48.2698 176.449 45.4432 176.98 42.7853C177.123 42.0684 177.842 40.8002 177.816 40.1652C177.761 38.8215 176.949 38.0313 176.882 36.9022C176.179 37.5347 175.489 38.1826 174.813 38.8446Z" fill="#89CC94"/>
<path opacity="0.7" fill-rule="evenodd" clip-rule="evenodd" d="M83.2024 271.673C83.2024 300.572 106.645 324 135.563 324C164.48 324 187.923 300.572 187.923 271.673" fill="#89CC94"/>
<path opacity="0.7" fill-rule="evenodd" clip-rule="evenodd" d="M139.764 271.839H136.997C137.189 268.37 137.443 264.907 138.023 261.477C140.242 248.357 147.182 229.088 162.403 226.958C162.964 226.879 165.03 226.865 167.532 227.012C168.718 226.35 170.046 225.949 171.445 225.857C184.404 224.903 198.876 235.351 205.127 246.223C210.166 254.99 209.317 266.501 206.205 275.814C204.12 282.049 199.572 290.939 191.986 291.026C182.495 291.134 182.037 279.412 181.854 272.559C181.61 263.448 180.458 255.511 173.274 249.3C171.6 247.854 169.77 246.581 168.079 245.154C165.431 242.921 162.504 240.635 162.163 236.94C161.692 231.843 164.571 230.926 168.966 231.873C169.716 232.034 177.263 235.419 176.146 232.744C175.805 231.926 174.558 231.279 172.986 230.794C168.916 230.351 164.062 229.838 162.666 230.145C147.607 233.446 141.743 254.294 140.186 267.539C140.018 268.968 139.882 270.403 139.764 271.839V271.839Z" fill="#0D6F1D"/>
</g>
</g>
<defs>
<clipPath id="clip0_1_159">
<rect width="241" height="324" fill="white"/>
</clipPath>
</defs>
</svg>
