<svg width="678" height="678" viewBox="0 0 678 678" fill="none" xmlns="http://www.w3.org/2000/svg">
<circle cx="339" cy="339" r="339" fill="#1D1041"/>
<path d="M196 575.631C196.841 575.337 197.651 575.039 198.429 574.738C199.207 574.437 199.923 574.129 200.575 573.814C201.237 573.503 201.799 573.168 202.263 572.809C202.73 572.442 203.067 572.035 203.273 571.591C203.411 571.291 203.479 571.014 203.475 570.759C203.476 570.495 203.427 570.257 203.326 570.045C203.235 569.838 203.104 569.656 202.934 569.5C202.768 569.335 202.58 569.205 202.371 569.108C202.072 568.97 201.795 568.902 201.54 568.905C201.289 568.899 201.06 568.942 200.852 569.034C200.654 569.129 200.483 569.248 200.34 569.391C200.206 569.539 200.099 569.699 200.019 569.871C199.88 570.171 199.8 570.464 199.777 570.751C199.759 571.029 199.794 571.298 199.882 571.56L198.732 571.904C198.586 571.671 198.493 571.396 198.452 571.08C198.42 570.768 198.428 570.452 198.476 570.133C198.538 569.809 198.621 569.533 198.726 569.306C198.953 568.816 199.283 568.413 199.716 568.095C200.163 567.773 200.678 567.587 201.263 567.538C201.857 567.493 202.489 567.626 203.161 567.936C203.733 568.201 204.171 568.563 204.476 569.024C204.781 569.484 204.951 569.987 204.985 570.532C205.024 571.067 204.924 571.594 204.684 572.111C204.475 572.565 204.178 572.968 203.795 573.32C203.412 573.671 202.968 573.989 202.462 574.273C201.965 574.561 201.434 574.828 200.869 575.073C200.317 575.314 199.763 575.559 199.207 575.809L198.723 575.353L202.699 577.192L202.113 578.458L196 575.631Z" fill="white"/>
<path d="M212.355 582.921C211.791 582.689 211.317 582.369 210.933 581.962C210.549 581.555 210.268 581.082 210.09 580.544C209.925 580 209.868 579.403 209.919 578.753C209.971 578.104 210.143 577.423 210.436 576.712C210.757 575.935 211.123 575.296 211.535 574.795C211.95 574.285 212.405 573.905 212.898 573.654C213.4 573.406 213.925 573.287 214.472 573.297C215.024 573.297 215.591 573.417 216.173 573.657C216.737 573.89 217.207 574.208 217.581 574.611C217.965 575.018 218.24 575.493 218.405 576.037C218.583 576.576 218.646 577.17 218.595 577.819C218.557 578.463 218.389 579.146 218.092 579.867C217.791 580.597 217.425 581.209 216.994 581.702C216.573 582.199 216.11 582.576 215.604 582.833C215.107 583.093 214.579 583.232 214.02 583.251C213.474 583.263 212.919 583.154 212.355 582.921ZM212.872 581.626C213.409 581.847 213.914 581.893 214.389 581.764C214.877 581.63 215.318 581.347 215.713 580.915C216.107 580.482 216.442 579.933 216.716 579.268C216.991 578.602 217.136 577.986 217.153 577.42C217.174 576.844 217.057 576.342 216.802 575.912C216.555 575.486 216.164 575.162 215.628 574.941C215.092 574.72 214.584 574.679 214.105 574.817C213.631 574.946 213.198 575.221 212.807 575.644C212.426 576.071 212.098 576.618 211.823 577.283C211.553 577.94 211.4 578.558 211.366 579.139C211.346 579.715 211.456 580.22 211.699 580.655C211.945 581.081 212.336 581.405 212.872 581.626Z" fill="white"/>
<path d="M222.723 586.985C223.537 586.621 224.319 586.256 225.069 585.89C225.819 585.525 226.506 585.157 227.13 584.788C227.763 584.423 228.295 584.042 228.726 583.645C229.161 583.24 229.462 582.807 229.63 582.346C229.743 582.036 229.787 581.754 229.762 581.5C229.741 581.237 229.671 581.004 229.553 580.802C229.445 580.603 229.299 580.433 229.116 580.292C228.937 580.141 228.739 580.027 228.523 579.948C228.213 579.835 227.931 579.791 227.677 579.816C227.427 579.831 227.202 579.893 227.003 580.002C226.813 580.114 226.653 580.247 226.522 580.402C226.401 580.56 226.308 580.728 226.243 580.907C226.13 581.217 226.075 581.516 226.076 581.804C226.081 582.082 226.139 582.348 226.249 582.601L225.132 583.04C224.967 582.821 224.851 582.555 224.783 582.243C224.725 581.935 224.707 581.619 224.728 581.297C224.762 580.969 224.822 580.688 224.908 580.453C225.092 579.945 225.387 579.515 225.792 579.162C226.21 578.804 226.708 578.575 227.286 578.477C227.874 578.382 228.516 578.461 229.211 578.714C229.803 578.929 230.27 579.254 230.613 579.687C230.956 580.12 231.167 580.607 231.247 581.147C231.331 581.677 231.275 582.21 231.081 582.746C230.91 583.216 230.648 583.642 230.296 584.025C229.944 584.408 229.528 584.762 229.048 585.087C228.577 585.416 228.071 585.727 227.528 586.019C226.998 586.305 226.467 586.596 225.934 586.891L225.413 586.479L229.53 587.976L229.053 589.287L222.723 586.985Z" fill="white"/>
<path d="M235.945 591.65C236.743 591.253 237.509 590.857 238.244 590.461C238.978 590.066 239.65 589.671 240.258 589.276C240.875 588.885 241.392 588.483 241.807 588.069C242.225 587.646 242.508 587.201 242.657 586.734C242.757 586.42 242.789 586.136 242.754 585.884C242.722 585.622 242.643 585.392 242.517 585.194C242.401 585 242.248 584.836 242.06 584.703C241.874 584.56 241.672 584.453 241.453 584.383C241.139 584.283 240.855 584.251 240.603 584.286C240.353 584.311 240.131 584.383 239.937 584.499C239.752 584.619 239.597 584.758 239.473 584.918C239.358 585.081 239.272 585.253 239.214 585.434C239.114 585.748 239.071 586.049 239.084 586.337C239.1 586.615 239.169 586.878 239.289 587.126L238.19 587.611C238.017 587.398 237.89 587.138 237.81 586.829C237.739 586.523 237.708 586.209 237.716 585.886C237.737 585.557 237.785 585.273 237.861 585.035C238.025 584.52 238.302 584.078 238.692 583.709C239.095 583.334 239.584 583.085 240.158 582.964C240.741 582.845 241.385 582.898 242.091 583.122C242.691 583.313 243.171 583.618 243.531 584.037C243.891 584.456 244.122 584.934 244.224 585.47C244.329 585.997 244.295 586.532 244.122 587.075C243.971 587.551 243.727 587.988 243.391 588.385C243.055 588.781 242.653 589.152 242.187 589.497C241.73 589.845 241.236 590.176 240.706 590.49C240.188 590.797 239.669 591.109 239.148 591.426L238.612 591.035L242.786 592.363L242.362 593.693L235.945 591.65Z" fill="white"/>
<path d="M259.943 594.642L262.664 595.32L262.367 596.514L259.645 595.835L259.943 594.642Z" fill="white"/>
<path d="M282.373 603.497C281.772 603.388 281.242 603.175 280.781 602.858C280.32 602.541 279.945 602.138 279.658 601.649C279.382 601.152 279.201 600.581 279.114 599.935C279.027 599.29 279.053 598.588 279.189 597.83C279.339 597.004 279.562 596.302 279.859 595.726C280.158 595.14 280.522 594.672 280.951 594.323C281.39 593.975 281.878 593.748 282.416 593.642C282.955 593.526 283.534 593.524 284.154 593.636C284.755 593.745 285.28 593.957 285.732 594.272C286.193 594.589 286.561 594.996 286.837 595.493C287.125 595.982 287.312 596.549 287.398 597.195C287.497 597.833 287.476 598.535 287.338 599.303C287.197 600.08 286.968 600.755 286.651 601.328C286.344 601.903 285.971 602.368 285.53 602.726C285.099 603.085 284.613 603.332 284.07 603.468C283.539 603.596 282.973 603.605 282.373 603.497ZM282.606 602.121C283.177 602.224 283.681 602.163 284.118 601.937C284.566 601.703 284.938 601.333 285.233 600.828C285.527 600.322 285.739 599.715 285.867 599.006C285.995 598.298 286.008 597.665 285.905 597.108C285.804 596.541 285.584 596.074 285.243 595.708C284.913 595.343 284.462 595.11 283.892 595.006C283.321 594.903 282.816 594.97 282.377 595.205C281.94 595.431 281.575 595.792 281.282 596.288C280.999 596.785 280.794 597.388 280.666 598.097C280.539 598.796 280.521 599.433 280.61 600.008C280.711 600.575 280.925 601.045 281.254 601.42C281.585 601.784 282.035 602.018 282.606 602.121Z" fill="white"/>
<path d="M294.765 595.499L297.319 595.865L295.918 605.635L294.478 605.429L295.681 597.039L294.567 596.88L294.765 595.499Z" fill="white"/>
<path d="M307.15 607.074C306.543 607.009 305.999 606.835 305.516 606.553C305.033 606.27 304.63 605.895 304.308 605.428C303.997 604.953 303.774 604.396 303.641 603.758C303.508 603.121 303.482 602.419 303.564 601.653C303.653 600.818 303.824 600.102 304.079 599.506C304.335 598.899 304.664 598.406 305.066 598.027C305.479 597.649 305.949 597.387 306.477 597.242C307.007 597.087 307.585 597.043 308.211 597.11C308.818 597.174 309.357 597.348 309.83 597.629C310.313 597.912 310.71 598.291 311.021 598.767C311.344 599.234 311.571 599.786 311.705 600.424C311.849 601.052 311.88 601.755 311.797 602.53C311.713 603.316 311.534 604.006 311.26 604.6C310.995 605.195 310.656 605.687 310.243 606.075C309.839 606.465 309.372 606.747 308.84 606.922C308.32 607.088 307.756 607.138 307.15 607.074ZM307.283 605.685C307.859 605.746 308.358 605.648 308.777 605.391C309.208 605.125 309.552 604.73 309.809 604.204C310.066 603.678 310.232 603.057 310.309 602.341C310.385 601.625 310.352 600.993 310.209 600.445C310.067 599.887 309.813 599.438 309.448 599.097C309.091 598.757 308.625 598.557 308.048 598.495C307.472 598.434 306.973 598.537 306.552 598.804C306.133 599.061 305.795 599.447 305.539 599.963C305.293 600.48 305.132 601.096 305.055 601.812C304.98 602.518 305.008 603.155 305.138 603.722C305.28 604.28 305.529 604.734 305.883 605.083C306.24 605.423 306.706 605.623 307.283 605.685Z" fill="white"/>
<path d="M318.929 598.197L321.503 598.377L320.815 608.223L319.363 608.122L319.954 599.667L318.832 599.589L318.929 598.197Z" fill="white"/>
<path d="M332.122 608.842C331.512 608.821 330.956 608.688 330.454 608.441C329.952 608.194 329.523 607.849 329.168 607.407C328.823 606.955 328.561 606.416 328.381 605.79C328.202 605.164 328.126 604.466 328.151 603.696C328.179 602.857 328.299 602.13 328.509 601.517C328.72 600.894 329.013 600.378 329.387 599.97C329.77 599.563 330.22 599.268 330.737 599.085C331.254 598.892 331.827 598.806 332.456 598.827C333.066 598.848 333.617 598.981 334.109 599.228C334.611 599.475 335.035 599.824 335.38 600.276C335.735 600.718 336.002 601.252 336.182 601.879C336.371 602.495 336.453 603.193 336.427 603.973C336.4 604.762 336.272 605.464 336.041 606.076C335.821 606.689 335.518 607.204 335.134 607.622C334.76 608.039 334.314 608.355 333.797 608.568C333.29 608.771 332.731 608.862 332.122 608.842ZM332.153 607.447C332.733 607.466 333.223 607.333 333.622 607.046C334.033 606.749 334.347 606.33 334.565 605.787C334.783 605.244 334.904 604.612 334.929 603.893C334.953 603.173 334.874 602.545 334.691 602.009C334.51 601.462 334.224 601.033 333.834 600.719C333.454 600.407 332.975 600.24 332.395 600.221C331.815 600.202 331.325 600.34 330.925 600.637C330.525 600.924 330.216 601.334 329.998 601.867C329.791 602.4 329.675 603.027 329.65 603.746C329.627 604.456 329.701 605.089 329.872 605.645C330.054 606.191 330.335 606.626 330.714 606.949C331.094 607.262 331.574 607.428 332.153 607.447Z" fill="white"/>
<path d="M347.143 609.03C346.533 609.037 345.972 608.927 345.459 608.703C344.947 608.478 344.504 608.152 344.129 607.726C343.765 607.29 343.479 606.763 343.273 606.145C343.067 605.527 342.96 604.833 342.952 604.063C342.943 603.223 343.031 602.492 343.215 601.87C343.398 601.238 343.668 600.71 344.024 600.287C344.389 599.863 344.826 599.548 345.334 599.343C345.842 599.128 346.411 599.017 347.041 599.011C347.651 599.005 348.207 599.114 348.709 599.339C349.221 599.564 349.66 599.894 350.024 600.331C350.399 600.757 350.689 601.279 350.895 601.897C351.111 602.505 351.224 603.199 351.231 603.979C351.239 604.768 351.142 605.475 350.938 606.097C350.744 606.719 350.465 607.247 350.099 607.68C349.743 608.114 349.312 608.448 348.804 608.683C348.306 608.909 347.753 609.024 347.143 609.03ZM347.113 607.636C347.693 607.63 348.177 607.475 348.564 607.171C348.961 606.857 349.256 606.424 349.451 605.872C349.645 605.32 349.739 604.684 349.731 603.964C349.724 603.244 349.618 602.62 349.412 602.092C349.207 601.554 348.902 601.137 348.499 600.841C348.106 600.545 347.62 600.4 347.04 600.406C346.46 600.412 345.977 600.572 345.59 600.886C345.203 601.19 344.912 601.613 344.718 602.155C344.533 602.697 344.444 603.328 344.452 604.048C344.459 604.757 344.56 605.386 344.756 605.935C344.961 606.472 345.261 606.894 345.654 607.2C346.047 607.496 346.533 607.642 347.113 607.636Z" fill="white"/>
<path d="M357.812 598.847L360.39 598.727L360.849 608.587L359.395 608.654L359.001 600.189L357.877 600.241L357.812 598.847Z" fill="white"/>
<path d="M367.524 598.303L370.097 598.109L370.842 607.95L369.392 608.06L368.752 599.61L367.63 599.694L367.524 598.303Z" fill="white"/>
<path d="M392.057 605.671C391.453 605.757 390.882 605.722 390.345 605.566C389.808 605.41 389.325 605.145 388.899 604.771C388.48 604.386 388.129 603.901 387.844 603.315C387.559 602.729 387.362 602.055 387.254 601.293C387.136 600.461 387.127 599.725 387.228 599.084C387.328 598.434 387.526 597.875 387.824 597.409C388.131 596.941 388.523 596.572 389 596.303C389.475 596.023 390.025 595.839 390.649 595.751C391.252 595.665 391.818 595.701 392.346 595.858C392.883 596.014 393.361 596.285 393.779 596.67C394.206 597.044 394.561 597.523 394.847 598.109C395.14 598.684 395.342 599.357 395.451 600.129C395.562 600.911 395.558 601.624 395.437 602.267C395.326 602.909 395.118 603.469 394.812 603.947C394.516 604.423 394.131 604.811 393.659 605.111C393.195 605.399 392.661 605.585 392.057 605.671ZM391.846 604.292C392.42 604.211 392.879 603.994 393.223 603.642C393.575 603.279 393.812 602.811 393.933 602.239C394.054 601.666 394.063 601.023 393.962 600.31C393.861 599.597 393.674 598.993 393.402 598.496C393.128 597.989 392.772 597.616 392.334 597.375C391.905 597.133 391.404 597.052 390.83 597.134C390.255 597.215 389.797 597.437 389.454 597.799C389.111 598.151 388.877 598.608 388.755 599.171C388.643 599.732 388.638 600.369 388.739 601.082C388.839 601.785 389.021 602.395 389.287 602.913C389.56 603.42 389.912 603.799 390.342 604.051C390.77 604.293 391.271 604.374 391.846 604.292Z" fill="white"/>
<path d="M401.307 594.183L403.846 593.728L405.588 603.444L404.155 603.7L402.66 595.358L401.553 595.557L401.307 594.183Z" fill="white"/>
<path d="M416.702 601.278C416.105 601.408 415.534 601.414 414.987 601.297C414.439 601.181 413.94 600.951 413.487 600.61C413.042 600.256 412.656 599.797 412.329 599.234C412.002 598.67 411.757 598.012 411.593 597.26C411.415 596.439 411.353 595.706 411.408 595.059C411.46 594.403 411.617 593.832 411.88 593.345C412.152 592.856 412.517 592.46 412.973 592.156C413.427 591.843 413.961 591.62 414.577 591.486C415.173 591.357 415.74 591.351 416.277 591.47C416.824 591.587 417.321 591.822 417.766 592.176C418.218 592.517 418.608 592.97 418.935 593.533C419.27 594.085 419.52 594.742 419.685 595.504C419.853 596.276 419.9 596.988 419.826 597.638C419.762 598.286 419.595 598.86 419.324 599.358C419.064 599.855 418.708 600.27 418.259 600.603C417.817 600.924 417.298 601.149 416.702 601.278ZM416.391 599.918C416.958 599.795 417.4 599.546 417.718 599.17C418.043 598.782 418.245 598.298 418.324 597.718C418.402 597.138 418.366 596.497 418.213 595.793C418.06 595.089 417.83 594.5 417.522 594.024C417.212 593.539 416.83 593.192 416.375 592.984C415.931 592.773 415.425 592.73 414.858 592.853C414.291 592.975 413.85 593.23 413.535 593.615C413.217 593.991 413.018 594.464 412.937 595.034C412.866 595.602 412.907 596.238 413.059 596.942C413.21 597.636 413.436 598.231 413.739 598.728C414.049 599.214 414.427 599.567 414.874 599.787C415.319 599.997 415.824 600.041 416.391 599.918Z" fill="white"/>
<path d="M431.314 597.787C430.724 597.942 430.153 597.974 429.601 597.881C429.049 597.788 428.54 597.581 428.073 597.259C427.613 596.925 427.207 596.484 426.856 595.935C426.505 595.387 426.231 594.74 426.035 593.995C425.821 593.183 425.728 592.453 425.754 591.805C425.777 591.147 425.909 590.57 426.151 590.072C426.402 589.572 426.748 589.16 427.191 588.837C427.63 588.504 428.155 588.257 428.764 588.097C429.354 587.942 429.92 587.912 430.462 588.007C431.014 588.1 431.52 588.313 431.98 588.647C432.447 588.968 432.856 589.404 433.208 589.952C433.566 590.489 433.844 591.134 434.043 591.889C434.244 592.653 434.322 593.361 434.276 594.014C434.241 594.665 434.098 595.245 433.85 595.755C433.611 596.262 433.275 596.692 432.84 597.044C432.412 597.384 431.904 597.632 431.314 597.787ZM430.944 596.442C431.505 596.294 431.936 596.026 432.237 595.636C432.545 595.235 432.725 594.743 432.779 594.16C432.832 593.577 432.768 592.938 432.584 592.241C432.401 591.545 432.145 590.966 431.817 590.504C431.486 590.033 431.089 589.703 430.626 589.515C430.173 589.324 429.666 589.302 429.105 589.45C428.544 589.597 428.114 589.871 427.816 590.27C427.515 590.659 427.337 591.14 427.281 591.713C427.234 592.284 427.303 592.917 427.486 593.614C427.666 594.3 427.919 594.885 428.242 595.369C428.573 595.84 428.967 596.176 429.423 596.377C429.876 596.568 430.383 596.589 430.944 596.442Z" fill="white"/>
<path d="M445.759 593.662C445.176 593.843 444.607 593.899 444.052 593.831C443.497 593.762 442.978 593.577 442.498 593.276C442.023 592.963 441.599 592.54 441.224 592.007C440.849 591.474 440.548 590.84 440.32 590.104C440.071 589.302 439.945 588.577 439.943 587.928C439.938 587.27 440.045 586.687 440.264 586.179C440.493 585.669 440.821 585.242 441.249 584.9C441.674 584.548 442.187 584.279 442.789 584.092C443.372 583.912 443.936 583.857 444.482 583.928C445.037 583.997 445.552 584.188 446.026 584.502C446.507 584.803 446.934 585.22 447.309 585.752C447.69 586.273 447.997 586.905 448.228 587.65C448.462 588.405 448.571 589.109 448.554 589.764C448.546 590.415 448.43 591.001 448.204 591.521C447.988 592.039 447.67 592.483 447.251 592.854C446.839 593.212 446.341 593.482 445.759 593.662ZM445.331 592.334C445.885 592.163 446.303 591.876 446.587 591.473C446.877 591.059 447.036 590.559 447.064 589.975C447.092 589.39 447 588.754 446.786 588.066C446.573 587.379 446.292 586.811 445.944 586.364C445.593 585.908 445.182 585.596 444.711 585.428C444.25 585.257 443.742 585.257 443.188 585.429C442.634 585.601 442.217 585.893 441.936 586.304C441.653 586.707 441.495 587.195 441.464 587.77C441.443 588.342 441.539 588.972 441.752 589.66C441.963 590.338 442.24 590.911 442.585 591.38C442.936 591.837 443.343 592.155 443.808 592.336C444.269 592.507 444.777 592.506 445.331 592.334Z" fill="white"/>
<path d="M453.062 580.848L455.497 579.995L458.763 589.309L457.39 589.79L454.586 581.792L453.524 582.165L453.062 580.848Z" fill="white"/>
<path d="M469.391 585.402C468.823 585.624 468.259 585.722 467.701 585.694C467.142 585.666 466.612 585.519 466.11 585.254C465.615 584.975 465.16 584.584 464.748 584.08C464.336 583.575 463.989 582.965 463.708 582.248C463.401 581.466 463.223 580.752 463.174 580.105C463.121 579.449 463.185 578.86 463.367 578.338C463.559 577.811 463.855 577.362 464.257 576.99C464.655 576.608 465.148 576.303 465.734 576.073C466.302 575.85 466.861 575.755 467.41 575.786C467.969 575.814 468.496 575.967 468.992 576.246C469.493 576.511 469.95 576.896 470.363 577.4C470.781 577.891 471.132 578.5 471.417 579.226C471.705 579.962 471.865 580.657 471.895 581.311C471.935 581.961 471.862 582.554 471.674 583.089C471.496 583.621 471.211 584.087 470.82 584.487C470.435 584.874 469.959 585.179 469.391 585.402ZM468.868 584.108C469.408 583.897 469.804 583.58 470.058 583.158C470.317 582.724 470.44 582.214 470.425 581.629C470.411 581.044 470.272 580.416 470.009 579.746C469.747 579.076 469.425 578.53 469.046 578.11C468.663 577.68 468.23 577.398 467.748 577.265C467.275 577.128 466.769 577.165 466.229 577.377C465.689 577.589 465.294 577.91 465.044 578.341C464.791 578.762 464.669 579.261 464.68 579.837C464.7 580.409 464.842 581.03 465.104 581.701C465.363 582.362 465.682 582.913 466.059 583.356C466.443 583.786 466.872 584.074 467.349 584.22C467.821 584.357 468.328 584.32 468.868 584.108Z" fill="white"/>
<path d="M475.745 572.091L478.111 571.063L482.044 580.115L480.71 580.695L477.332 572.922L476.301 573.371L475.745 572.091Z" fill="white"/>
<path d="M482.044 101.715C481.203 102.009 480.393 102.307 479.615 102.608C478.837 102.909 478.121 103.217 477.469 103.532C476.807 103.843 476.245 104.178 475.781 104.537C475.314 104.905 474.977 105.311 474.772 105.756C474.633 106.055 474.566 106.332 474.569 106.587C474.568 106.851 474.618 107.089 474.718 107.301C474.81 107.508 474.94 107.69 475.111 107.846C475.277 108.011 475.464 108.142 475.673 108.238C475.972 108.377 476.25 108.444 476.505 108.441C476.755 108.447 476.984 108.404 477.192 108.313C477.39 108.217 477.561 108.098 477.705 107.955C477.839 107.807 477.946 107.648 478.025 107.475C478.164 107.176 478.244 106.882 478.267 106.595C478.285 106.317 478.25 106.048 478.162 105.786L479.312 105.443C479.458 105.675 479.552 105.95 479.593 106.266C479.624 106.578 479.616 106.894 479.568 107.213C479.506 107.537 479.423 107.813 479.318 108.04C479.091 108.53 478.761 108.934 478.328 109.251C477.881 109.573 477.366 109.759 476.781 109.808C476.188 109.853 475.555 109.721 474.883 109.41C474.311 109.146 473.873 108.783 473.568 108.323C473.263 107.862 473.094 107.359 473.059 106.815C473.02 106.279 473.121 105.752 473.36 105.235C473.57 104.781 473.866 104.378 474.249 104.027C474.632 103.675 475.077 103.357 475.582 103.073C476.079 102.785 476.61 102.518 477.175 102.273C477.727 102.032 478.281 101.787 478.838 101.538L479.321 101.993L475.346 100.154L475.931 98.8882L482.044 101.715Z" fill="white"/>
<path d="M465.69 94.425C466.254 94.6575 466.727 94.9772 467.111 95.3842C467.495 95.7912 467.776 96.264 467.954 96.8026C468.12 97.3466 468.176 97.9433 468.125 98.5927C468.074 99.2421 467.901 99.9228 467.608 100.635C467.288 101.411 466.922 102.05 466.51 102.551C466.094 103.061 465.64 103.441 465.147 103.693C464.645 103.94 464.12 104.059 463.572 104.049C463.02 104.049 462.453 103.929 461.871 103.689C461.307 103.456 460.838 103.139 460.463 102.735C460.079 102.328 459.805 101.853 459.64 101.309C459.461 100.77 459.398 100.176 459.449 99.5269C459.488 98.8829 459.655 98.2003 459.953 97.4792C460.254 96.7488 460.619 96.137 461.05 95.6438C461.471 95.1468 461.935 94.7701 462.441 94.5135C462.937 94.2532 463.465 94.1139 464.024 94.0956C464.571 94.0827 465.126 94.1926 465.69 94.425ZM465.172 95.7205C464.636 95.4994 464.13 95.4533 463.655 95.582C463.167 95.7162 462.726 95.9994 462.331 96.4317C461.937 96.8639 461.602 97.4129 461.328 98.0786C461.054 98.7442 460.908 99.3602 460.891 99.9264C460.87 100.502 460.987 101.004 461.243 101.434C461.489 101.86 461.88 102.184 462.416 102.405C462.953 102.626 463.46 102.667 463.939 102.529C464.414 102.401 464.847 102.125 465.237 101.702C465.619 101.275 465.947 100.729 466.221 100.063C466.492 99.4066 466.644 98.788 466.678 98.2071C466.699 97.6316 466.588 97.1262 466.345 96.691C466.099 96.265 465.708 95.9415 465.172 95.7205Z" fill="white"/>
<path d="M455.321 90.3615C454.507 90.7254 453.726 91.0902 452.976 91.4558C452.225 91.8214 451.538 92.1887 450.915 92.5578C450.282 92.9234 449.749 93.3044 449.318 93.7008C448.883 94.1066 448.582 94.5397 448.414 95.0002C448.302 95.3103 448.257 95.5923 448.282 95.846C448.304 96.1091 448.373 96.342 448.491 96.5445C448.6 96.7435 448.745 96.9136 448.928 97.0545C449.107 97.2049 449.305 97.3194 449.521 97.398C449.832 97.5108 450.113 97.5548 450.367 97.5301C450.618 97.5147 450.842 97.4528 451.041 97.3443C451.231 97.2324 451.391 97.0991 451.522 96.9445C451.643 96.7864 451.736 96.6181 451.801 96.4396C451.914 96.1295 451.97 95.8304 451.968 95.5425C451.963 95.264 451.905 94.9983 451.795 94.7454L452.913 94.3059C453.077 94.5255 453.194 94.7912 453.261 95.103C453.319 95.4115 453.337 95.7267 453.316 96.0488C453.282 96.3769 453.222 96.6584 453.137 96.8933C452.952 97.4008 452.657 97.831 452.252 98.1838C451.834 98.5426 451.336 98.7711 450.758 98.8693C450.17 98.9641 449.529 98.885 448.833 98.6321C448.241 98.4168 447.774 98.0925 447.431 97.6593C447.089 97.2261 446.877 96.7396 446.797 96.1996C446.713 95.669 446.769 95.1359 446.964 94.6003C447.135 94.1304 447.396 93.7041 447.748 93.3213C448.1 92.9386 448.516 92.5845 448.996 92.259C449.467 91.9301 449.974 91.6196 450.516 91.3275C451.046 91.0413 451.577 90.7504 452.111 90.4548L452.631 90.8675L448.515 89.3704L448.991 88.0594L455.321 90.3615Z" fill="white"/>
<path d="M442.1 85.6961C441.302 86.0928 440.535 86.489 439.801 86.8849C439.066 87.2807 438.395 87.6757 437.786 88.0698C437.169 88.4609 436.652 88.8632 436.237 89.2768C435.819 89.7 435.536 90.145 435.387 90.6119C435.287 90.9264 435.255 91.2099 435.29 91.4624C435.322 91.7245 435.401 91.9543 435.527 92.1518C435.644 92.3463 435.796 92.5102 435.984 92.6437C436.17 92.7866 436.372 92.893 436.591 92.9627C436.906 93.0628 437.189 93.0953 437.442 93.0603C437.691 93.0347 437.913 92.9637 438.108 92.8472C438.293 92.7277 438.447 92.588 438.572 92.4282C438.686 92.2653 438.773 92.0934 438.83 91.9123C438.93 91.5979 438.974 91.2968 438.96 91.0092C438.944 90.7311 438.875 90.468 438.755 90.2198L439.854 89.7352C440.027 89.9479 440.154 90.2086 440.234 90.5175C440.305 90.8233 440.336 91.1376 440.328 91.4602C440.307 91.7894 440.259 92.0731 440.183 92.3114C440.019 92.8259 439.742 93.2677 439.352 93.6367C438.949 94.0122 438.461 94.2608 437.887 94.3825C437.303 94.5011 436.659 94.4482 435.954 94.2238C435.353 94.0327 434.873 93.7277 434.513 93.3088C434.153 92.89 433.922 92.4124 433.82 91.8762C433.715 91.3494 433.749 90.8145 433.922 90.2713C434.073 89.7949 434.317 89.3583 434.653 88.9616C434.99 88.5648 435.391 88.1941 435.857 87.8493C436.314 87.5016 436.808 87.1707 437.338 86.8567C437.856 86.5492 438.375 86.237 438.896 85.9199L439.432 86.3111L435.259 84.9827L435.682 83.6534L442.1 85.6961Z" fill="white"/>
<path d="M418.102 82.7043L415.38 82.0262L415.677 80.8327L418.399 81.5108L418.102 82.7043Z" fill="white"/>
<path d="M395.672 73.8496C396.272 73.9581 396.803 74.1708 397.264 74.4878C397.725 74.8049 398.099 75.2078 398.386 75.6968C398.662 76.1938 398.844 76.7651 398.93 77.4108C399.017 78.0565 398.992 78.7582 398.855 79.5159C398.705 80.3426 398.482 81.044 398.185 81.6204C397.886 82.2065 397.522 82.6743 397.093 83.0235C396.654 83.3711 396.166 83.5979 395.629 83.704C395.089 83.8199 394.51 83.8219 393.89 83.7099C393.29 83.6014 392.764 83.3895 392.313 83.0743C391.852 82.7573 391.483 82.3503 391.207 81.8532C390.92 81.3643 390.732 80.797 390.646 80.1513C390.548 79.5137 390.568 78.8111 390.707 78.0435C390.847 77.2661 391.076 76.591 391.393 76.0182C391.7 75.4437 392.074 74.9777 392.514 74.6204C392.945 74.2613 393.432 74.0139 393.975 73.8782C394.506 73.7507 395.071 73.7411 395.672 73.8496ZM395.438 75.225C394.868 75.1219 394.364 75.1832 393.927 75.4091C393.478 75.643 393.106 76.0128 392.811 76.5185C392.517 77.0242 392.306 77.6313 392.177 78.3398C392.049 79.0483 392.037 79.6811 392.139 80.2383C392.24 80.8052 392.461 81.2719 392.801 81.6382C393.131 82.0028 393.582 82.2366 394.153 82.3398C394.723 82.4429 395.228 82.3766 395.667 82.1409C396.104 81.9151 396.469 81.5542 396.762 81.0584C397.045 80.5608 397.251 79.9577 397.379 79.2492C397.505 78.5505 397.523 77.9137 397.434 77.3386C397.334 76.7717 397.119 76.301 396.79 75.9266C396.46 75.562 396.009 75.3282 395.438 75.225Z" fill="white"/>
<path d="M383.279 81.8473L380.725 81.4811L382.126 71.711L383.567 71.9176L382.364 80.3067L383.477 80.4664L383.279 81.8473Z" fill="white"/>
<path d="M370.894 70.2727C371.501 70.3373 372.046 70.511 372.528 70.7937C373.011 71.0764 373.414 71.4511 373.736 71.9179C374.048 72.3936 374.27 72.9502 374.403 73.5879C374.536 74.2256 374.562 74.9273 374.481 75.693C374.392 76.5282 374.22 77.2441 373.965 77.8405C373.71 78.4468 373.381 78.9397 372.978 79.3192C372.566 79.6977 372.095 79.9594 371.567 80.1042C371.038 80.259 370.46 80.3031 369.833 80.2363C369.227 80.1717 368.687 79.9986 368.214 79.717C367.731 79.4342 367.334 79.055 367.023 78.5794C366.701 78.1126 366.473 77.5604 366.34 76.9227C366.195 76.2939 366.165 75.5917 366.247 74.8161C366.331 74.0305 366.51 73.3406 366.784 72.7463C367.049 72.151 367.388 71.6591 367.801 71.2707C368.205 70.8813 368.672 70.5992 369.204 70.4245C369.724 70.2587 370.288 70.2081 370.894 70.2727ZM370.762 71.6614C370.185 71.6 369.687 71.6978 369.267 71.9548C368.837 72.2207 368.493 72.6165 368.236 73.1422C367.978 73.668 367.812 74.2888 367.736 75.0048C367.659 75.7207 367.693 76.3528 367.835 76.901C367.977 77.4591 368.231 77.9085 368.597 78.2492C368.953 78.5888 369.419 78.7894 369.996 78.8508C370.573 78.9122 371.071 78.8094 371.492 78.5425C371.912 78.2855 372.249 77.8991 372.505 77.3833C372.752 76.8665 372.913 76.2501 372.989 75.5341C373.064 74.8281 373.036 74.1916 372.906 73.6246C372.764 73.0664 372.516 72.6126 372.161 72.263C371.805 71.9234 371.338 71.7229 370.762 71.6614Z" fill="white"/>
<path d="M359.115 79.1491L356.542 78.9693L357.23 69.1233L358.681 69.2247L358.09 77.6791L359.213 77.7575L359.115 79.1491Z" fill="white"/>
<path d="M345.923 68.5044C346.532 68.5248 347.088 68.6585 347.59 68.9054C348.092 69.1523 348.521 69.4968 348.876 69.939C349.221 70.3908 349.484 70.9298 349.663 71.5562C349.842 72.1825 349.919 72.8805 349.893 73.65C349.865 74.4896 349.746 75.216 349.535 75.8293C349.324 76.4526 349.032 76.9681 348.658 77.3758C348.274 77.7832 347.824 78.0783 347.307 78.2612C346.791 78.454 346.217 78.5399 345.588 78.5189C344.978 78.4985 344.427 78.365 343.935 78.1184C343.433 77.8715 343.01 77.5221 342.665 77.0703C342.309 76.6282 342.042 76.094 341.863 75.4676C341.673 74.851 341.591 74.1528 341.618 73.3733C341.644 72.5837 341.772 71.8826 342.003 71.27C342.224 70.657 342.526 70.1418 342.91 69.7244C343.284 69.3067 343.73 68.9914 344.248 68.7786C344.755 68.5754 345.313 68.4841 345.923 68.5044ZM345.891 69.8992C345.311 69.8798 344.822 70.0135 344.422 70.3003C344.012 70.5967 343.698 71.0165 343.479 71.5595C343.261 72.1025 343.14 72.7338 343.116 73.4534C343.092 74.173 343.171 74.801 343.353 75.3374C343.535 75.8838 343.821 76.3135 344.21 76.6268C344.59 76.9396 345.07 77.1057 345.649 77.1251C346.229 77.1445 346.719 77.0058 347.119 76.709C347.519 76.4222 347.828 76.0123 348.046 75.4793C348.254 74.946 348.37 74.3195 348.394 73.5999C348.418 72.8903 348.344 72.2575 348.172 71.7014C347.99 71.155 347.71 70.7204 347.33 70.3976C346.95 70.0847 346.471 69.9186 345.891 69.8992Z" fill="white"/>
<path d="M330.902 68.3158C331.512 68.3096 332.073 68.4189 332.585 68.6437C333.097 68.8685 333.541 69.194 333.915 69.6202C334.28 70.0565 334.565 70.5836 334.771 71.2016C334.977 71.8195 335.085 72.5135 335.092 73.2834C335.101 74.1234 335.013 74.8543 334.83 75.4762C334.646 76.1081 334.376 76.6359 334.021 77.0595C333.655 77.4833 333.218 77.7977 332.71 78.0029C332.202 78.2181 331.634 78.3289 331.004 78.3353C330.394 78.3415 329.837 78.2321 329.335 78.0072C328.823 77.7824 328.384 77.4519 328.02 77.0156C327.646 76.5894 327.355 76.0673 327.149 75.4494C326.933 74.8415 326.821 74.1476 326.813 73.3677C326.805 72.5777 326.903 71.8717 327.106 71.2496C327.3 70.6276 327.58 70.0997 327.945 69.666C328.301 69.2323 328.732 68.8979 329.24 68.6627C329.738 68.4376 330.292 68.322 330.902 68.3158ZM330.931 69.7106C330.351 69.7165 329.867 69.8714 329.48 70.1754C329.084 70.4894 328.788 70.9224 328.594 71.4744C328.399 72.0265 328.306 72.6624 328.313 73.3824C328.32 74.1024 328.427 74.7263 328.632 75.2543C328.838 75.7922 329.142 76.2091 329.545 76.505C329.938 76.801 330.424 76.9461 331.004 76.9402C331.584 76.9343 332.068 76.7744 332.455 76.4604C332.841 76.1565 333.132 75.7335 333.327 75.1915C333.511 74.6496 333.6 74.0186 333.592 73.2987C333.585 72.5887 333.484 71.9597 333.288 71.4117C333.083 70.8737 332.783 70.4518 332.39 70.1458C331.997 69.8497 331.511 69.7047 330.931 69.7106Z" fill="white"/>
<path d="M320.232 78.4988L317.655 78.6187L317.196 68.7594L318.649 68.6917L319.043 77.1576L320.167 77.1053L320.232 78.4988Z" fill="white"/>
<path d="M310.52 79.0427L307.947 79.2376L307.202 69.3957L308.653 69.2859L309.293 77.7367L310.414 77.6517L310.52 79.0427Z" fill="white"/>
<path d="M285.988 71.675C286.592 71.5893 287.162 71.6244 287.699 71.7805C288.237 71.9365 288.719 72.2014 289.146 72.5752C289.564 72.9602 289.915 73.4456 290.201 74.0314C290.486 74.6171 290.682 75.2912 290.791 76.0535C290.909 76.8852 290.917 77.6213 290.816 78.2618C290.717 78.9123 290.518 79.4707 290.221 79.9371C289.913 80.405 289.521 80.7737 289.044 81.0434C288.569 81.323 288.019 81.507 287.396 81.5956C286.792 81.6813 286.226 81.6454 285.699 81.488C285.161 81.3319 284.684 81.0614 284.265 80.6763C283.839 80.3026 283.483 79.8228 283.198 79.2371C282.904 78.6626 282.702 77.9893 282.593 77.217C282.482 76.4349 282.487 75.7221 282.607 75.0788C282.718 74.4368 282.927 73.877 283.233 73.3992C283.529 72.9229 283.913 72.5351 284.386 72.2357C284.85 71.9476 285.384 71.7607 285.988 71.675ZM286.199 73.054C285.624 73.1355 285.165 73.3522 284.821 73.704C284.469 74.0672 284.232 74.535 284.111 75.1077C283.991 75.6803 283.981 76.3231 284.082 77.036C284.183 77.7488 284.37 78.3536 284.643 78.8502C284.917 79.3567 285.273 79.7304 285.711 79.9712C286.139 80.2134 286.64 80.2938 287.215 80.2123C287.789 80.1308 288.247 79.9092 288.59 79.5474C288.934 79.1956 289.167 78.7383 289.289 78.1756C289.401 77.6142 289.407 76.9772 289.305 76.2643C289.206 75.5613 289.023 74.9509 288.758 74.4331C288.484 73.9266 288.132 73.5472 287.702 73.2951C287.274 73.0529 286.773 72.9725 286.199 73.054Z" fill="white"/>
<path d="M276.737 83.1627L274.198 83.6178L272.457 73.9026L273.889 73.6459L275.384 81.988L276.491 81.7896L276.737 83.1627Z" fill="white"/>
<path d="M261.343 76.068C261.939 75.9387 262.51 75.9323 263.058 76.0489C263.605 76.1656 264.105 76.3948 264.557 76.7365C265.003 77.0902 265.389 77.5488 265.716 78.1123C266.042 78.6757 266.288 79.3337 266.451 80.0862C266.629 80.9071 266.691 81.6407 266.637 82.2869C266.585 82.9428 266.427 83.5142 266.164 84.001C265.892 84.4899 265.528 84.8861 265.072 85.1897C264.618 85.5031 264.083 85.7266 263.467 85.8602C262.871 85.9895 262.304 85.9948 261.767 85.876C261.22 85.7594 260.724 85.5243 260.279 85.1706C259.826 84.8288 259.436 84.3762 259.109 83.8127C258.774 83.2611 258.524 82.6042 258.359 81.8419C258.192 81.0699 258.145 80.3587 258.218 79.7082C258.282 79.0599 258.45 78.4864 258.72 77.9877C258.981 77.4912 259.336 77.0765 259.785 76.7435C260.227 76.4225 260.747 76.1973 261.343 76.068ZM261.653 77.4281C261.086 77.5511 260.644 77.8005 260.327 78.1764C260.001 78.5642 259.799 79.048 259.721 79.6279C259.642 80.2078 259.679 80.8496 259.831 81.5532C259.984 82.2568 260.214 82.8464 260.522 83.3219C260.832 83.8072 261.214 84.1541 261.669 84.3624C262.114 84.5729 262.619 84.6167 263.186 84.4937C263.753 84.3707 264.194 84.1164 264.509 83.7307C264.827 83.3549 265.026 82.8819 265.107 82.3117C265.178 81.7437 265.138 81.1079 264.985 80.4043C264.834 79.7104 264.608 79.1149 264.306 78.6177C263.996 78.1324 263.617 77.7796 263.17 77.5593C262.726 77.3489 262.22 77.3051 261.653 77.4281Z" fill="white"/>
<path d="M246.731 79.5591C247.321 79.4039 247.891 79.3726 248.443 79.4653C248.995 79.5579 249.504 79.7651 249.972 80.0868C250.432 80.4207 250.837 80.8621 251.188 81.4108C251.54 81.9595 251.813 82.6061 252.009 83.3508C252.223 84.1632 252.317 84.8933 252.291 85.5412C252.267 86.1989 252.135 86.7765 251.894 87.2743C251.643 87.7746 251.296 88.1864 250.854 88.5096C250.414 88.8424 249.889 89.089 249.28 89.2493C248.69 89.4045 248.124 89.4345 247.582 89.3393C247.03 89.2466 246.524 89.0333 246.064 88.6994C245.597 88.3777 245.188 87.9425 244.837 87.3938C244.478 86.8573 244.2 86.2119 244.002 85.4576C243.801 84.6936 243.723 83.985 243.768 83.332C243.804 82.6815 243.946 82.1013 244.194 81.5913C244.433 81.0839 244.77 80.654 245.204 80.3018C245.632 79.9619 246.141 79.7143 246.731 79.5591ZM247.1 80.9043C246.539 81.0519 246.108 81.3204 245.807 81.7097C245.499 82.1113 245.319 82.6035 245.265 83.1863C245.212 83.7691 245.277 84.4086 245.46 85.1049C245.643 85.8012 245.899 86.3802 246.227 86.8419C246.558 87.3132 246.955 87.6431 247.418 87.8314C247.872 88.0223 248.379 88.044 248.94 87.8964C249.501 87.7488 249.93 87.4755 250.228 87.0765C250.529 86.6871 250.708 86.2059 250.764 85.6328C250.81 85.0622 250.742 84.4288 250.558 83.7325C250.378 83.0458 250.126 82.4607 249.802 81.9772C249.471 81.5058 249.078 81.1699 248.622 80.9693C248.168 80.7784 247.661 80.7568 247.1 80.9043Z" fill="white"/>
<path d="M232.286 83.6839C232.868 83.5031 233.437 83.447 233.993 83.5155C234.548 83.5841 235.066 83.7688 235.547 84.0699C236.021 84.3834 236.445 84.8066 236.82 85.3395C237.195 85.8724 237.496 86.5065 237.724 87.2419C237.973 88.0442 238.099 88.7696 238.101 89.418C238.107 90.076 237.999 90.6589 237.78 91.1668C237.551 91.6775 237.223 92.104 236.795 92.4462C236.37 92.7979 235.857 93.0671 235.255 93.2538C234.673 93.4346 234.108 93.4892 233.563 93.4177C233.007 93.3492 232.493 93.1581 232.019 92.8446C231.538 92.5436 231.11 92.1266 230.735 91.5937C230.354 91.0734 230.048 90.4407 229.816 89.6957C229.582 88.9412 229.474 88.2368 229.49 87.5824C229.498 86.931 229.614 86.3451 229.84 85.8248C230.057 85.3074 230.374 84.8633 230.793 84.4925C231.206 84.1342 231.703 83.8647 232.286 83.6839ZM232.713 85.0118C232.16 85.1837 231.741 85.4707 231.457 85.8728C231.167 86.2874 231.008 86.787 230.98 87.3715C230.952 87.9561 231.045 88.5922 231.258 89.2799C231.471 89.9675 231.752 90.5348 232.1 90.9817C232.451 91.4382 232.862 91.7504 233.333 91.9184C233.794 92.0894 234.302 92.0889 234.856 91.917C235.41 91.7451 235.827 91.4534 236.108 91.0417C236.392 90.6396 236.549 90.151 236.58 89.576C236.601 89.004 236.505 88.3741 236.292 87.6865C236.081 87.0084 235.804 86.4348 235.46 85.9658C235.109 85.5094 234.701 85.1909 234.236 85.0104C233.775 84.8394 233.267 84.8399 232.713 85.0118Z" fill="white"/>
<path d="M224.982 96.4979L222.547 97.3515L219.282 88.0374L220.655 87.556L223.459 95.5537L224.52 95.1815L224.982 96.4979Z" fill="white"/>
<path d="M208.654 91.9445C209.222 91.7219 209.785 91.6246 210.344 91.6526C210.902 91.6807 211.433 91.8274 211.934 92.0927C212.43 92.371 212.884 92.7622 213.296 93.2665C213.709 93.7708 214.055 94.3813 214.336 95.0982C214.643 95.8803 214.821 96.5946 214.87 97.2412C214.923 97.8971 214.859 98.4863 214.677 99.0087C214.486 99.5347 214.189 99.9839 213.787 100.356C213.389 100.738 212.897 101.044 212.31 101.274C211.742 101.496 211.184 101.592 210.634 101.56C210.075 101.532 209.548 101.379 209.052 101.1C208.551 100.835 208.094 100.45 207.682 99.946C207.263 99.4547 206.912 98.846 206.627 98.1198C206.339 97.3843 206.18 96.6896 206.149 96.0357C206.109 95.3854 206.183 94.7926 206.37 94.2573C206.548 93.7256 206.833 93.2596 207.224 92.8593C207.609 92.472 208.086 92.1671 208.654 91.9445ZM209.177 93.2378C208.637 93.4495 208.24 93.7661 207.986 94.1878C207.727 94.6223 207.605 95.1322 207.619 95.7172C207.634 96.3023 207.772 96.93 208.035 97.6003C208.298 98.2707 208.619 98.8161 208.998 99.2365C209.382 99.6663 209.814 99.9479 210.296 100.081C210.769 100.218 211.275 100.181 211.815 99.9692C212.355 99.7576 212.75 99.4363 213 99.0053C213.254 98.5837 213.375 98.085 213.364 97.5093C213.344 96.9372 213.203 96.316 212.94 95.6456C212.681 94.9846 212.362 94.4327 211.985 93.99C211.602 93.5602 211.172 93.2721 210.696 93.1258C210.223 92.9888 209.717 93.0262 209.177 93.2378Z" fill="white"/>
<path d="M202.3 105.255L199.933 106.283L196 97.2308L197.334 96.651L200.712 104.424L201.744 103.976L202.3 105.255Z" fill="white"/>
<path d="M439.386 229.057C436.83 207.466 426.46 190.705 408.278 178.773C390.097 166.841 367.795 160.875 341.375 160.875C322.057 160.875 305.153 164 290.665 170.25C276.318 176.5 265.097 185.094 257 196.031C249.045 206.969 245.068 219.398 245.068 233.318C245.068 244.966 247.838 254.98 253.378 263.361C259.06 271.599 266.304 278.489 275.111 284.028C283.918 289.426 293.151 293.901 302.81 297.452C312.469 300.861 321.347 303.631 329.443 305.761L373.761 317.693C385.125 320.676 397.767 324.795 411.688 330.051C425.75 335.307 439.173 342.48 451.957 351.571C464.884 360.52 475.537 372.026 483.918 386.088C492.298 400.151 496.489 417.409 496.489 437.864C496.489 461.443 490.31 482.75 477.952 501.784C465.736 520.818 447.838 535.946 424.259 547.168C400.821 558.389 372.341 564 338.818 564C307.568 564 280.509 558.957 257.639 548.872C234.912 538.787 217.014 524.724 203.946 506.685C191.02 488.645 183.705 467.693 182 443.83H236.545C237.966 460.307 243.506 473.943 253.165 484.739C262.966 495.392 275.324 503.347 290.239 508.602C305.295 513.716 321.489 516.273 338.818 516.273C358.989 516.273 377.099 513.006 393.151 506.472C409.202 499.795 421.915 490.563 431.29 478.773C440.665 466.841 445.352 452.92 445.352 437.011C445.352 422.523 441.304 410.733 433.207 401.642C425.111 392.551 414.457 385.165 401.247 379.483C388.037 373.801 373.761 368.83 358.42 364.568L304.727 349.227C270.636 339.426 243.648 325.435 223.761 307.253C203.875 289.071 193.932 265.278 193.932 235.875C193.932 211.443 200.537 190.136 213.747 171.955C227.099 153.631 244.997 139.426 267.44 129.341C290.026 119.114 315.239 114 343.08 114C371.205 114 396.205 119.043 418.08 129.128C439.955 139.071 457.284 152.707 470.068 170.037C482.994 187.366 489.813 207.04 490.523 229.057H439.386Z" fill="#DFA100"/>
<path fill-rule="evenodd" clip-rule="evenodd" d="M408.278 178.773C426.46 190.705 436.83 207.466 439.386 229.057H479.386C476.83 207.466 466.46 190.705 448.278 178.773C430.097 166.841 407.795 160.875 381.375 160.875C374.372 160.875 367.687 161.286 361.319 162.107C379.213 164.416 394.867 169.971 408.278 178.773ZM363.207 114.91C356.686 114.303 349.977 114 343.08 114C315.239 114 290.026 119.114 267.44 129.341C244.997 139.426 227.099 153.631 213.747 171.955C200.537 190.136 193.932 211.443 193.932 235.875C193.932 265.278 203.875 289.071 223.761 307.253C243.648 325.435 270.636 339.426 304.727 349.227L358.42 364.568C373.761 368.83 388.037 373.801 401.247 379.483C414.457 385.165 425.111 392.551 433.207 401.642C441.304 410.733 445.352 422.523 445.352 437.011C445.352 452.92 440.665 466.841 431.29 478.773C421.915 490.562 409.202 499.795 393.151 506.472C382.652 510.745 371.272 513.622 359.011 515.1C365.439 515.882 372.042 516.273 378.818 516.273C398.989 516.273 417.099 513.006 433.151 506.472C449.202 499.795 461.915 490.562 471.29 478.773C480.665 466.841 485.352 452.92 485.352 437.011C485.352 422.523 481.304 410.733 473.207 401.642C465.111 392.551 454.457 385.165 441.247 379.483C428.037 373.801 413.761 368.83 398.42 364.568L344.727 349.227C310.636 339.426 283.648 325.435 263.761 307.253C243.875 289.071 233.932 265.278 233.932 235.875C233.932 211.443 240.537 190.136 253.747 171.955C267.099 153.631 284.997 139.426 307.44 129.341C324.526 121.604 343.115 116.794 363.207 114.91ZM222 443.83H182C183.705 467.693 191.02 488.645 203.946 506.685C217.014 524.724 234.912 538.787 257.639 548.872C280.509 558.957 307.568 564 338.818 564C345.75 564 352.467 563.76 358.967 563.28C335.963 561.56 315.52 556.758 297.639 548.872C274.912 538.787 257.014 524.724 243.946 506.685C231.02 488.645 223.705 467.693 222 443.83Z" fill="url(#paint0_radial_135_385)" fill-opacity="0.42"/>
<path fill-rule="evenodd" clip-rule="evenodd" d="M479.386 229.057H490.523C489.812 207.04 482.994 187.366 470.068 170.037C457.284 152.707 439.955 139.071 418.08 129.128C401.569 121.516 383.278 116.776 363.207 114.91C343.114 116.794 324.526 121.604 307.44 129.341C284.997 139.426 267.099 153.631 253.747 171.955C240.537 190.136 233.932 211.443 233.932 235.875C233.932 265.278 243.875 289.071 263.761 307.253C283.648 325.435 310.636 339.426 344.727 349.227L398.42 364.568C413.761 368.83 428.037 373.801 441.247 379.483C454.457 385.165 465.111 392.551 473.207 401.642C481.304 410.733 485.352 422.523 485.352 437.011C485.352 452.92 480.665 466.841 471.29 478.773C461.915 490.563 449.202 499.795 433.151 506.472C417.099 513.006 398.989 516.273 378.818 516.273C372.042 516.273 365.439 515.882 359.011 515.1C352.526 515.882 345.796 516.273 338.818 516.273C321.489 516.273 305.295 513.716 290.239 508.602C275.324 503.347 262.966 495.392 253.165 484.739C243.506 473.943 237.966 460.307 236.545 443.83H222C223.705 467.693 231.02 488.645 243.946 506.685C257.014 524.724 274.912 538.787 297.639 548.872C315.52 556.758 335.963 561.56 358.967 563.28C383.904 561.44 405.668 556.069 424.259 547.168C447.838 535.946 465.736 520.818 477.952 501.784C490.31 482.75 496.489 461.443 496.489 437.864C496.489 417.409 492.298 400.151 483.918 386.088C475.537 372.026 464.884 360.52 451.957 351.571C439.173 342.48 425.75 335.307 411.688 330.051C397.767 324.795 385.125 320.676 373.761 317.693L329.443 305.761C321.347 303.631 312.469 300.861 302.81 297.452C293.151 293.901 283.918 289.426 275.111 284.028C266.304 278.489 259.06 271.599 253.378 263.361C247.838 254.98 245.068 244.966 245.068 233.318C245.068 219.398 249.045 206.969 257 196.031C265.097 185.094 276.318 176.5 290.665 170.25C305.153 164 322.057 160.875 341.375 160.875C348.306 160.875 354.954 161.286 361.319 162.107C367.687 161.286 374.372 160.875 381.375 160.875C407.795 160.875 430.097 166.841 448.278 178.773C466.46 190.705 476.83 207.466 479.386 229.057Z" fill="url(#paint1_radial_135_385)"/>
<defs>
<radialGradient id="paint0_radial_135_385" cx="0" cy="0" r="1" gradientUnits="userSpaceOnUse" gradientTransform="translate(333.676 339) rotate(90) scale(225 151.676)">
<stop stop-color="#C16C1E"/>
<stop offset="1" stop-color="#C89F34" stop-opacity="0"/>
</radialGradient>
<radialGradient id="paint1_radial_135_385" cx="0" cy="0" r="1" gradientUnits="userSpaceOnUse" gradientTransform="translate(359.244 339.095) rotate(90) scale(224.185 137.244)">
<stop stop-color="#FFE974"/>
<stop offset="1" stop-color="#FFE974" stop-opacity="0.29"/>
</radialGradient>
</defs>
</svg>
