<svg width="1077" height="736" viewBox="0 0 1077 736" fill="none" xmlns="http://www.w3.org/2000/svg">
<path d="M618.887 256.976C616.519 255.76 613.927 254.704 611.111 253.808C608.295 252.912 605.543 252.464 602.855 252.464C599.143 252.464 596.167 253.328 593.927 255.056C591.751 256.784 590.663 259.088 590.663 261.968C590.663 264.144 591.367 266 592.775 267.536C594.183 269.008 596.039 270.288 598.343 271.376C600.647 272.464 603.047 273.488 605.543 274.448C607.719 275.28 609.863 276.208 611.975 277.232C614.087 278.256 615.975 279.536 617.639 281.072C619.367 282.608 620.711 284.496 621.671 286.736C622.695 288.976 623.207 291.76 623.207 295.088C623.207 298.736 622.279 302.064 620.423 305.072C618.631 308.08 616.039 310.448 612.647 312.176C609.255 313.904 605.223 314.768 600.551 314.768C597.479 314.768 594.535 314.416 591.719 313.712C588.967 313.008 586.407 312.112 584.039 311.024C581.671 309.872 579.559 308.688 577.703 307.472L581.831 300.176C583.367 301.264 585.127 302.32 587.111 303.344C589.095 304.304 591.175 305.104 593.351 305.744C595.527 306.32 597.639 306.608 599.687 306.608C601.863 306.608 604.007 306.224 606.119 305.456C608.295 304.624 610.087 303.376 611.495 301.712C612.903 300.048 613.607 297.84 613.607 295.088C613.607 292.72 612.967 290.768 611.687 289.232C610.471 287.632 608.839 286.288 606.791 285.2C604.743 284.048 602.567 283.024 600.263 282.128C598.087 281.296 595.879 280.4 593.639 279.44C591.399 278.416 589.319 277.2 587.399 275.792C585.479 274.32 583.943 272.528 582.791 270.416C581.639 268.304 581.063 265.744 581.063 262.736C581.063 259.088 581.927 255.92 583.655 253.232C585.447 250.48 587.879 248.336 590.951 246.8C594.023 245.2 597.543 244.336 601.511 244.208C605.991 244.208 609.927 244.752 613.319 245.84C616.775 246.928 619.815 248.272 622.439 249.872L618.887 256.976Z" fill="white"/>
<path d="M643.85 244.592L666.698 302L661.418 300.944L683.114 244.592H693.962L663.338 317.168L632.81 244.592H643.85Z" fill="white"/>
<path d="M707.858 244.592H752.978V253.52H717.17V274.64H749.138V283.568H717.17V305.072H754.322V314H707.858V244.592Z" fill="white"/>
<path d="M830.579 316.208L776.915 261.776L779.603 262.448L779.795 314H770.483V242.48H770.963L824.051 297.104L821.843 296.624L821.651 244.592H830.867V316.208H830.579Z" fill="white"/>
<path d="M886.731 256.976C884.363 255.76 881.771 254.704 878.955 253.808C876.139 252.912 873.387 252.464 870.699 252.464C866.987 252.464 864.011 253.328 861.771 255.056C859.595 256.784 858.507 259.088 858.507 261.968C858.507 264.144 859.211 266 860.619 267.536C862.027 269.008 863.883 270.288 866.187 271.376C868.491 272.464 870.891 273.488 873.387 274.448C875.563 275.28 877.707 276.208 879.819 277.232C881.931 278.256 883.819 279.536 885.483 281.072C887.211 282.608 888.555 284.496 889.515 286.736C890.539 288.976 891.051 291.76 891.051 295.088C891.051 298.736 890.123 302.064 888.267 305.072C886.475 308.08 883.883 310.448 880.491 312.176C877.099 313.904 873.067 314.768 868.395 314.768C865.323 314.768 862.379 314.416 859.563 313.712C856.811 313.008 854.251 312.112 851.883 311.024C849.515 309.872 847.403 308.688 845.547 307.472L849.675 300.176C851.211 301.264 852.971 302.32 854.955 303.344C856.939 304.304 859.019 305.104 861.195 305.744C863.371 306.32 865.483 306.608 867.531 306.608C869.707 306.608 871.851 306.224 873.963 305.456C876.139 304.624 877.931 303.376 879.339 301.712C880.747 300.048 881.451 297.84 881.451 295.088C881.451 292.72 880.811 290.768 879.531 289.232C878.315 287.632 876.683 286.288 874.635 285.2C872.587 284.048 870.411 283.024 868.107 282.128C865.931 281.296 863.723 280.4 861.483 279.44C859.243 278.416 857.163 277.2 855.243 275.792C853.323 274.32 851.787 272.528 850.635 270.416C849.483 268.304 848.907 265.744 848.907 262.736C848.907 259.088 849.771 255.92 851.499 253.232C853.291 250.48 855.723 248.336 858.795 246.8C861.867 245.2 865.387 244.336 869.355 244.208C873.835 244.208 877.771 244.752 881.163 245.84C884.619 246.928 887.659 248.272 890.283 249.872L886.731 256.976Z" fill="white"/>
<path d="M916.11 272.528L915.822 275.984L917.07 274.256L945.486 244.592H957.486L928.782 274.352L959.118 314H947.31L921.966 280.304L916.11 285.968V314H906.702V244.592H916.11V272.528Z" fill="white"/>
<path d="M578.663 375.344C578.663 370.544 579.559 366.032 581.351 361.808C583.207 357.52 585.767 353.744 589.031 350.48C592.295 347.152 596.039 344.56 600.263 342.704C604.551 340.784 609.159 339.824 614.087 339.824C618.951 339.824 623.495 340.784 627.719 342.704C632.007 344.56 635.783 347.152 639.047 350.48C642.375 353.744 644.967 357.52 646.823 361.808C648.679 366.032 649.607 370.544 649.607 375.344C649.607 380.272 648.679 384.88 646.823 389.168C644.967 393.456 642.375 397.232 639.047 400.496C635.783 403.696 632.007 406.224 627.719 408.08C623.495 409.872 618.951 410.768 614.087 410.768C609.159 410.768 604.551 409.872 600.263 408.08C596.039 406.288 592.295 403.792 589.031 400.592C585.767 397.392 583.207 393.648 581.351 389.36C579.559 385.072 578.663 380.4 578.663 375.344ZM588.263 375.44C588.263 379.088 588.935 382.512 590.279 385.712C591.623 388.848 593.479 391.632 595.847 394.064C598.215 396.496 600.967 398.416 604.103 399.824C607.239 401.168 610.631 401.84 614.279 401.84C617.863 401.84 621.223 401.168 624.359 399.824C627.495 398.416 630.215 396.496 632.519 394.064C634.823 391.632 636.647 388.848 637.991 385.712C639.335 382.512 640.007 379.056 640.007 375.344C640.007 371.696 639.335 368.272 637.991 365.072C636.647 361.808 634.791 358.96 632.423 356.528C630.055 354.096 627.303 352.208 624.167 350.864C621.031 349.456 617.671 348.752 614.087 348.752C610.439 348.752 607.047 349.456 603.911 350.864C600.775 352.272 598.023 354.192 595.655 356.624C593.287 359.056 591.463 361.904 590.183 365.168C588.903 368.368 588.263 371.792 588.263 375.44Z" fill="white"/>
<path d="M683.824 340.592C688.88 340.592 693.2 341.456 696.784 343.184C700.368 344.848 703.12 347.28 705.04 350.48C707.024 353.68 708.016 357.552 708.016 362.096C708.016 364.848 707.6 367.568 706.768 370.256C705.936 372.88 704.592 375.28 702.736 377.456C700.944 379.568 698.576 381.264 695.632 382.544C692.688 383.824 689.104 384.464 684.88 384.464H674.608V410H665.296V340.592H683.824ZM684.784 375.536C687.536 375.536 689.808 375.088 691.6 374.192C693.392 373.296 694.8 372.176 695.824 370.832C696.848 369.424 697.584 367.952 698.032 366.416C698.48 364.88 698.704 363.504 698.704 362.288C698.704 360.88 698.48 359.44 698.032 357.968C697.584 356.432 696.816 355.056 695.728 353.84C694.704 352.56 693.328 351.536 691.6 350.768C689.936 349.936 687.856 349.52 685.36 349.52H674.608V375.536H684.784Z" fill="white"/>
<path d="M722.389 340.592H767.509V349.52H731.701V370.64H763.669V379.568H731.701V401.072H768.853V410H722.389V340.592Z" fill="white"/>
<path d="M845.11 412.208L791.446 357.776L794.134 358.448L794.326 410H785.014V338.48H785.494L838.582 393.104L836.374 392.624L836.182 340.592H845.398V412.208H845.11Z" fill="white"/>
<path d="M618.887 448.976C616.519 447.76 613.927 446.704 611.111 445.808C608.295 444.912 605.543 444.464 602.855 444.464C599.143 444.464 596.167 445.328 593.927 447.056C591.751 448.784 590.663 451.088 590.663 453.968C590.663 456.144 591.367 458 592.775 459.536C594.183 461.008 596.039 462.288 598.343 463.376C600.647 464.464 603.047 465.488 605.543 466.448C607.719 467.28 609.863 468.208 611.975 469.232C614.087 470.256 615.975 471.536 617.639 473.072C619.367 474.608 620.711 476.496 621.671 478.736C622.695 480.976 623.207 483.76 623.207 487.088C623.207 490.736 622.279 494.064 620.423 497.072C618.631 500.08 616.039 502.448 612.647 504.176C609.255 505.904 605.223 506.768 600.551 506.768C597.479 506.768 594.535 506.416 591.719 505.712C588.967 505.008 586.407 504.112 584.039 503.024C581.671 501.872 579.559 500.688 577.703 499.472L581.831 492.176C583.367 493.264 585.127 494.32 587.111 495.344C589.095 496.304 591.175 497.104 593.351 497.744C595.527 498.32 597.639 498.608 599.687 498.608C601.863 498.608 604.007 498.224 606.119 497.456C608.295 496.624 610.087 495.376 611.495 493.712C612.903 492.048 613.607 489.84 613.607 487.088C613.607 484.72 612.967 482.768 611.687 481.232C610.471 479.632 608.839 478.288 606.791 477.2C604.743 476.048 602.567 475.024 600.263 474.128C598.087 473.296 595.879 472.4 593.639 471.44C591.399 470.416 589.319 469.2 587.399 467.792C585.479 466.32 583.943 464.528 582.791 462.416C581.639 460.304 581.063 457.744 581.063 454.736C581.063 451.088 581.927 447.92 583.655 445.232C585.447 442.48 587.879 440.336 590.951 438.8C594.023 437.2 597.543 436.336 601.511 436.208C605.991 436.208 609.927 436.752 613.319 437.84C616.775 438.928 619.815 440.272 622.439 441.872L618.887 448.976Z" fill="white"/>
<path d="M634.538 471.344C634.538 466.544 635.434 462.032 637.226 457.808C639.082 453.52 641.642 449.744 644.906 446.48C648.17 443.152 651.914 440.56 656.138 438.704C660.426 436.784 665.034 435.824 669.962 435.824C674.826 435.824 679.37 436.784 683.594 438.704C687.882 440.56 691.658 443.152 694.922 446.48C698.25 449.744 700.842 453.52 702.698 457.808C704.554 462.032 705.482 466.544 705.482 471.344C705.482 476.272 704.554 480.88 702.698 485.168C700.842 489.456 698.25 493.232 694.922 496.496C691.658 499.696 687.882 502.224 683.594 504.08C679.37 505.872 674.826 506.768 669.962 506.768C665.034 506.768 660.426 505.872 656.138 504.08C651.914 502.288 648.17 499.792 644.906 496.592C641.642 493.392 639.082 489.648 637.226 485.36C635.434 481.072 634.538 476.4 634.538 471.344ZM644.138 471.44C644.138 475.088 644.81 478.512 646.154 481.712C647.498 484.848 649.354 487.632 651.722 490.064C654.09 492.496 656.842 494.416 659.978 495.824C663.114 497.168 666.506 497.84 670.154 497.84C673.738 497.84 677.098 497.168 680.234 495.824C683.37 494.416 686.09 492.496 688.394 490.064C690.698 487.632 692.522 484.848 693.866 481.712C695.21 478.512 695.882 475.056 695.882 471.344C695.882 467.696 695.21 464.272 693.866 461.072C692.522 457.808 690.666 454.96 688.298 452.528C685.93 450.096 683.178 448.208 680.042 446.864C676.906 445.456 673.546 444.752 669.962 444.752C666.314 444.752 662.922 445.456 659.786 446.864C656.65 448.272 653.898 450.192 651.53 452.624C649.162 455.056 647.338 457.904 646.058 461.168C644.778 464.368 644.138 467.792 644.138 471.44Z" fill="white"/>
<path d="M729.523 481.424C729.523 484.56 730.259 487.376 731.731 489.872C733.267 492.304 735.283 494.224 737.779 495.632C740.275 497.04 743.091 497.744 746.227 497.744C749.491 497.744 752.403 497.04 754.963 495.632C757.523 494.224 759.539 492.304 761.011 489.872C762.483 487.376 763.219 484.56 763.219 481.424V436.592H772.339V481.712C772.339 486.768 771.155 491.184 768.787 494.96C766.483 498.736 763.347 501.648 759.379 503.696C755.475 505.744 751.091 506.768 746.227 506.768C741.363 506.768 736.979 505.744 733.075 503.696C729.171 501.648 726.067 498.736 723.763 494.96C721.459 491.184 720.307 486.768 720.307 481.712V436.592H729.523V481.424Z" fill="white"/>
<path d="M809.821 436.592C813.341 436.592 816.573 437.072 819.517 438.032C822.525 438.928 825.117 440.304 827.293 442.16C829.533 443.952 831.261 446.192 832.477 448.88C833.757 451.504 834.397 454.576 834.397 458.096C834.397 460.848 833.981 463.536 833.149 466.16C832.381 468.784 831.069 471.184 829.213 473.36C827.357 475.472 824.925 477.2 821.917 478.544C818.973 479.824 815.325 480.464 810.973 480.464H800.701V506H791.389V436.592H809.821ZM810.781 471.536C813.533 471.536 815.805 471.12 817.597 470.288C819.453 469.456 820.893 468.4 821.917 467.12C822.941 465.776 823.677 464.336 824.125 462.8C824.573 461.264 824.797 459.824 824.797 458.48C824.797 457.072 824.541 455.632 824.029 454.16C823.581 452.624 822.813 451.216 821.725 449.936C820.701 448.656 819.325 447.6 817.597 446.768C815.933 445.936 813.885 445.52 811.453 445.52H800.701V471.536H810.781ZM822.205 476.816L840.349 506H829.597L811.165 477.104L822.205 476.816Z" fill="white"/>
<path d="M904.147 500.816C902.995 501.584 901.427 502.448 899.443 503.408C897.459 504.368 895.123 505.168 892.435 505.808C889.811 506.448 886.931 506.768 883.795 506.768C878.419 506.704 873.555 505.744 869.203 503.888C864.915 502.032 861.267 499.504 858.259 496.304C855.251 493.104 852.915 489.424 851.251 485.264C849.651 481.04 848.851 476.56 848.851 471.824C848.851 466.64 849.683 461.872 851.347 457.52C853.075 453.104 855.475 449.296 858.547 446.096C861.619 442.832 865.235 440.304 869.395 438.512C873.619 436.72 878.227 435.824 883.219 435.824C887.379 435.824 891.155 436.4 894.547 437.552C897.939 438.64 900.851 439.952 903.283 441.488L899.539 450.128C897.619 448.848 895.283 447.632 892.531 446.48C889.843 445.328 886.835 444.752 883.507 444.752C880.115 444.752 876.915 445.424 873.907 446.768C870.899 448.112 868.243 450 865.939 452.432C863.635 454.864 861.811 457.712 860.467 460.976C859.187 464.176 858.547 467.632 858.547 471.344C858.547 475.12 859.123 478.64 860.275 481.904C861.491 485.104 863.187 487.888 865.363 490.256C867.603 492.624 870.291 494.48 873.427 495.824C876.563 497.168 880.083 497.84 883.987 497.84C887.507 497.84 890.643 497.296 893.395 496.208C896.147 495.12 898.419 493.904 900.211 492.56L904.147 500.816Z" fill="white"/>
<path d="M919.827 436.592H964.947V445.52H929.139V466.64H961.107V475.568H929.139V497.072H966.291V506H919.827V436.592Z" fill="white"/>
<path d="M191.043 593.631C191.884 593.337 192.694 593.039 193.472 592.738C194.25 592.437 194.966 592.129 195.618 591.814C196.28 591.503 196.842 591.168 197.306 590.809C197.773 590.442 198.11 590.035 198.316 589.591C198.454 589.291 198.522 589.014 198.518 588.759C198.519 588.495 198.469 588.257 198.369 588.045C198.278 587.838 198.147 587.656 197.977 587.5C197.81 587.335 197.623 587.205 197.414 587.108C197.115 586.97 196.838 586.902 196.583 586.905C196.332 586.899 196.103 586.942 195.895 587.034C195.697 587.129 195.526 587.248 195.383 587.391C195.248 587.539 195.142 587.699 195.062 587.871C194.923 588.171 194.843 588.464 194.82 588.751C194.802 589.029 194.837 589.298 194.925 589.56L193.775 589.904C193.629 589.671 193.536 589.396 193.495 589.08C193.463 588.768 193.471 588.452 193.519 588.133C193.581 587.809 193.664 587.533 193.769 587.306C193.996 586.816 194.326 586.413 194.759 586.095C195.206 585.773 195.721 585.587 196.306 585.538C196.9 585.493 197.532 585.626 198.204 585.936C198.776 586.201 199.214 586.563 199.519 587.024C199.824 587.484 199.994 587.987 200.028 588.532C200.067 589.067 199.967 589.594 199.727 590.111C199.518 590.565 199.221 590.968 198.838 591.32C198.455 591.671 198.011 591.989 197.505 592.273C197.008 592.561 196.477 592.828 195.912 593.073C195.36 593.314 194.806 593.559 194.25 593.809L193.766 593.353L197.742 595.192L197.156 596.458L191.043 593.631Z" fill="white"/>
<path d="M207.398 600.921C206.834 600.689 206.36 600.369 205.976 599.962C205.592 599.555 205.311 599.082 205.133 598.544C204.968 598 204.911 597.403 204.962 596.753C205.014 596.104 205.186 595.423 205.479 594.712C205.8 593.935 206.166 593.296 206.578 592.795C206.993 592.285 207.448 591.905 207.941 591.654C208.443 591.406 208.968 591.287 209.515 591.297C210.067 591.297 210.634 591.417 211.216 591.657C211.78 591.89 212.25 592.208 212.624 592.611C213.008 593.018 213.283 593.493 213.448 594.037C213.626 594.576 213.689 595.17 213.638 595.819C213.6 596.463 213.432 597.146 213.135 597.867C212.833 598.597 212.468 599.209 212.037 599.702C211.616 600.199 211.153 600.576 210.647 600.833C210.15 601.093 209.622 601.232 209.063 601.251C208.517 601.263 207.962 601.154 207.398 600.921ZM207.915 599.626C208.452 599.847 208.957 599.893 209.432 599.764C209.92 599.63 210.361 599.347 210.756 598.915C211.15 598.482 211.485 597.933 211.759 597.268C212.034 596.602 212.179 595.986 212.196 595.42C212.217 594.844 212.1 594.342 211.845 593.912C211.598 593.486 211.207 593.162 210.671 592.941C210.135 592.72 209.627 592.679 209.148 592.817C208.674 592.946 208.241 593.221 207.85 593.644C207.469 594.071 207.141 594.618 206.866 595.283C206.596 595.94 206.443 596.558 206.409 597.139C206.389 597.715 206.499 598.22 206.742 598.655C206.988 599.081 207.379 599.405 207.915 599.626Z" fill="white"/>
<path d="M217.766 604.985C218.58 604.621 219.362 604.256 220.112 603.89C220.862 603.525 221.549 603.157 222.172 602.788C222.806 602.423 223.338 602.042 223.769 601.645C224.204 601.24 224.505 600.807 224.673 600.346C224.786 600.036 224.83 599.754 224.805 599.5C224.784 599.237 224.714 599.004 224.596 598.802C224.488 598.603 224.342 598.433 224.159 598.292C223.98 598.141 223.782 598.027 223.566 597.948C223.256 597.835 222.974 597.791 222.72 597.816C222.47 597.831 222.245 597.893 222.046 598.002C221.856 598.114 221.696 598.247 221.565 598.402C221.444 598.56 221.351 598.728 221.286 598.907C221.173 599.217 221.118 599.516 221.119 599.804C221.124 600.082 221.182 600.348 221.292 600.601L220.175 601.04C220.01 600.821 219.894 600.555 219.826 600.243C219.768 599.935 219.75 599.619 219.771 599.297C219.805 598.969 219.865 598.688 219.951 598.453C220.135 597.945 220.43 597.515 220.835 597.162C221.253 596.804 221.751 596.575 222.329 596.477C222.917 596.382 223.559 596.461 224.254 596.714C224.846 596.929 225.313 597.254 225.656 597.687C225.999 598.12 226.21 598.607 226.29 599.147C226.374 599.677 226.318 600.21 226.124 600.746C225.953 601.216 225.691 601.642 225.339 602.025C224.987 602.408 224.571 602.762 224.091 603.087C223.62 603.416 223.113 603.727 222.571 604.019C222.041 604.305 221.51 604.596 220.977 604.891L220.456 604.479L224.573 605.976L224.096 607.287L217.766 604.985Z" fill="white"/>
<path d="M230.988 609.65C231.786 609.253 232.552 608.857 233.286 608.461C234.021 608.066 234.693 607.671 235.301 607.276C235.918 606.885 236.435 606.483 236.85 606.069C237.268 605.646 237.551 605.201 237.7 604.734C237.8 604.42 237.832 604.136 237.797 603.884C237.765 603.622 237.686 603.392 237.56 603.194C237.444 603 237.291 602.836 237.103 602.703C236.917 602.56 236.715 602.453 236.496 602.383C236.182 602.283 235.898 602.251 235.646 602.286C235.396 602.311 235.174 602.383 234.98 602.499C234.795 602.619 234.64 602.758 234.516 602.918C234.401 603.081 234.315 603.253 234.257 603.434C234.157 603.748 234.114 604.049 234.127 604.337C234.143 604.615 234.212 604.878 234.332 605.126L233.233 605.611C233.06 605.398 232.933 605.138 232.853 604.829C232.782 604.523 232.751 604.209 232.759 603.886C232.78 603.557 232.828 603.273 232.904 603.035C233.068 602.52 233.345 602.078 233.735 601.709C234.138 601.334 234.627 601.085 235.201 600.964C235.784 600.845 236.428 600.898 237.133 601.122C237.734 601.313 238.214 601.618 238.574 602.037C238.934 602.456 239.165 602.934 239.267 603.47C239.372 603.997 239.338 604.532 239.165 605.075C239.014 605.551 238.77 605.988 238.434 606.385C238.098 606.781 237.696 607.152 237.23 607.497C236.773 607.845 236.279 608.176 235.749 608.49C235.231 608.797 234.712 609.109 234.191 609.426L233.655 609.035L237.829 610.363L237.405 611.693L230.988 609.65Z" fill="white"/>
<path d="M254.986 612.642L257.707 613.32L257.41 614.514L254.688 613.835L254.986 612.642Z" fill="white"/>
<path d="M277.416 621.497C276.815 621.388 276.285 621.175 275.824 620.858C275.363 620.541 274.988 620.138 274.701 619.649C274.425 619.152 274.243 618.581 274.157 617.935C274.07 617.29 274.096 616.588 274.232 615.83C274.382 615.004 274.605 614.302 274.902 613.726C275.201 613.14 275.565 612.672 275.994 612.323C276.433 611.975 276.921 611.748 277.459 611.642C277.998 611.526 278.577 611.524 279.197 611.636C279.798 611.745 280.323 611.957 280.775 612.272C281.235 612.589 281.604 612.996 281.88 613.493C282.168 613.982 282.355 614.549 282.441 615.195C282.539 615.833 282.519 616.535 282.381 617.303C282.24 618.08 282.011 618.755 281.694 619.328C281.387 619.903 281.014 620.368 280.573 620.726C280.142 621.085 279.655 621.332 279.113 621.468C278.582 621.596 278.016 621.605 277.416 621.497ZM277.649 620.121C278.22 620.224 278.724 620.163 279.161 619.937C279.609 619.703 279.981 619.333 280.276 618.828C280.57 618.322 280.782 617.715 280.91 617.006C281.038 616.298 281.051 615.665 280.948 615.108C280.847 614.541 280.627 614.074 280.286 613.708C279.956 613.343 279.505 613.11 278.935 613.006C278.364 612.903 277.859 612.97 277.42 613.205C276.983 613.431 276.618 613.792 276.325 614.288C276.042 614.785 275.837 615.388 275.709 616.097C275.582 616.796 275.564 617.433 275.653 618.008C275.754 618.575 275.968 619.045 276.297 619.42C276.628 619.784 277.078 620.018 277.649 620.121Z" fill="white"/>
<path d="M289.808 613.499L292.362 613.865L290.961 623.635L289.521 623.429L290.724 615.039L289.61 614.88L289.808 613.499Z" fill="white"/>
<path d="M302.193 625.074C301.586 625.009 301.042 624.835 300.559 624.553C300.076 624.27 299.673 623.895 299.351 623.428C299.04 622.953 298.817 622.396 298.684 621.758C298.551 621.121 298.525 620.419 298.607 619.653C298.696 618.818 298.867 618.102 299.122 617.506C299.378 616.899 299.707 616.406 300.109 616.027C300.522 615.649 300.992 615.387 301.52 615.242C302.05 615.087 302.628 615.043 303.254 615.11C303.861 615.174 304.4 615.348 304.873 615.629C305.356 615.912 305.753 616.291 306.064 616.767C306.387 617.234 306.614 617.786 306.748 618.424C306.892 619.052 306.923 619.755 306.84 620.53C306.756 621.316 306.577 622.006 306.303 622.6C306.038 623.195 305.699 623.687 305.286 624.075C304.882 624.465 304.415 624.747 303.883 624.922C303.363 625.088 302.799 625.138 302.193 625.074ZM302.326 623.685C302.902 623.746 303.401 623.648 303.82 623.391C304.251 623.125 304.595 622.73 304.852 622.204C305.109 621.678 305.275 621.057 305.352 620.341C305.428 619.625 305.395 618.993 305.252 618.445C305.11 617.887 304.856 617.438 304.49 617.097C304.134 616.757 303.668 616.557 303.091 616.495C302.515 616.434 302.016 616.537 301.595 616.804C301.176 617.061 300.838 617.447 300.582 617.963C300.336 618.48 300.174 619.096 300.098 619.812C300.023 620.518 300.051 621.155 300.181 621.722C300.323 622.28 300.571 622.734 300.926 623.083C301.282 623.423 301.749 623.623 302.326 623.685Z" fill="white"/>
<path d="M313.972 616.197L316.546 616.377L315.858 626.223L314.406 626.122L314.997 617.667L313.875 617.589L313.972 616.197Z" fill="white"/>
<path d="M327.165 626.842C326.555 626.821 325.999 626.688 325.497 626.441C324.995 626.194 324.566 625.849 324.211 625.407C323.866 624.955 323.604 624.416 323.424 623.79C323.245 623.164 323.169 622.466 323.194 621.696C323.222 620.857 323.342 620.13 323.552 619.517C323.763 618.894 324.056 618.378 324.43 617.97C324.813 617.563 325.263 617.268 325.78 617.085C326.297 616.892 326.87 616.806 327.499 616.827C328.109 616.848 328.66 616.981 329.152 617.228C329.654 617.475 330.078 617.824 330.423 618.276C330.778 618.718 331.045 619.252 331.225 619.879C331.414 620.495 331.496 621.193 331.47 621.973C331.443 622.762 331.315 623.464 331.084 624.076C330.864 624.689 330.561 625.204 330.177 625.622C329.803 626.039 329.357 626.355 328.84 626.568C328.333 626.771 327.774 626.862 327.165 626.842ZM327.196 625.447C327.776 625.466 328.266 625.333 328.665 625.046C329.076 624.749 329.39 624.33 329.608 623.787C329.826 623.244 329.947 622.612 329.971 621.893C329.996 621.173 329.917 620.545 329.734 620.009C329.553 619.462 329.267 619.033 328.877 618.719C328.497 618.407 328.017 618.24 327.438 618.221C326.858 618.202 326.368 618.34 325.968 618.637C325.568 618.924 325.259 619.334 325.041 619.867C324.834 620.4 324.718 621.027 324.693 621.746C324.67 622.456 324.744 623.089 324.915 623.645C325.097 624.191 325.378 624.626 325.757 624.949C326.137 625.262 326.616 625.428 327.196 625.447Z" fill="white"/>
<path d="M342.186 627.03C341.576 627.037 341.014 626.927 340.502 626.703C339.99 626.478 339.547 626.152 339.172 625.726C338.808 625.29 338.522 624.763 338.316 624.145C338.11 623.527 338.003 622.833 337.995 622.063C337.986 621.223 338.074 620.492 338.258 619.87C338.441 619.238 338.711 618.71 339.066 618.287C339.432 617.863 339.869 617.548 340.377 617.343C340.885 617.128 341.454 617.017 342.084 617.011C342.694 617.005 343.25 617.114 343.752 617.339C344.264 617.564 344.703 617.894 345.067 618.331C345.442 618.757 345.732 619.279 345.938 619.897C346.154 620.505 346.266 621.199 346.274 621.979C346.282 622.768 346.185 623.475 345.981 624.097C345.787 624.719 345.508 625.247 345.142 625.68C344.786 626.114 344.355 626.448 343.847 626.683C343.349 626.909 342.796 627.024 342.186 627.03ZM342.156 625.636C342.736 625.63 343.22 625.475 343.607 625.171C344.004 624.857 344.299 624.424 344.494 623.872C344.688 623.32 344.782 622.684 344.774 621.964C344.767 621.244 344.661 620.62 344.455 620.092C344.25 619.554 343.945 619.137 343.542 618.841C343.149 618.545 342.663 618.4 342.083 618.406C341.503 618.412 341.019 618.572 340.633 618.886C340.246 619.19 339.955 619.613 339.761 620.155C339.576 620.697 339.487 621.328 339.495 622.048C339.502 622.757 339.603 623.386 339.799 623.935C340.004 624.472 340.304 624.894 340.697 625.2C341.09 625.496 341.576 625.642 342.156 625.636Z" fill="white"/>
<path d="M352.855 616.847L355.433 616.727L355.891 626.587L354.438 626.654L354.044 618.189L352.92 618.241L352.855 616.847Z" fill="white"/>
<path d="M362.567 616.303L365.14 616.109L365.885 625.95L364.434 626.06L363.795 617.61L362.673 617.694L362.567 616.303Z" fill="white"/>
<path d="M387.1 623.671C386.496 623.757 385.925 623.722 385.388 623.566C384.85 623.41 384.368 623.145 383.942 622.771C383.523 622.386 383.172 621.901 382.887 621.315C382.601 620.729 382.405 620.055 382.297 619.293C382.179 618.461 382.17 617.725 382.271 617.084C382.371 616.434 382.569 615.875 382.867 615.409C383.174 614.941 383.566 614.572 384.043 614.303C384.518 614.023 385.068 613.839 385.692 613.751C386.295 613.665 386.861 613.701 387.388 613.858C387.926 614.014 388.403 614.285 388.822 614.67C389.248 615.044 389.604 615.523 389.89 616.109C390.183 616.684 390.385 617.357 390.494 618.129C390.605 618.911 390.601 619.624 390.48 620.267C390.369 620.909 390.16 621.469 389.855 621.947C389.559 622.423 389.174 622.811 388.702 623.111C388.238 623.399 387.703 623.585 387.1 623.671ZM386.889 622.292C387.463 622.211 387.922 621.994 388.266 621.642C388.618 621.279 388.855 620.811 388.976 620.239C389.097 619.666 389.106 619.023 389.005 618.31C388.904 617.597 388.717 616.993 388.445 616.496C388.171 615.989 387.815 615.616 387.376 615.375C386.948 615.133 386.447 615.052 385.873 615.134C385.298 615.215 384.84 615.437 384.497 615.799C384.153 616.151 383.92 616.608 383.798 617.171C383.686 617.732 383.681 618.369 383.782 619.082C383.881 619.785 384.064 620.395 384.329 620.913C384.603 621.42 384.955 621.799 385.385 622.051C385.813 622.293 386.314 622.374 386.889 622.292Z" fill="white"/>
<path d="M396.35 612.183L398.889 611.728L400.63 621.444L399.198 621.7L397.703 613.358L396.596 613.557L396.35 612.183Z" fill="white"/>
<path d="M411.745 619.278C411.148 619.408 410.577 619.414 410.03 619.297C409.482 619.181 408.983 618.951 408.53 618.61C408.085 618.256 407.699 617.797 407.372 617.234C407.045 616.67 406.8 616.012 406.636 615.26C406.458 614.439 406.396 613.706 406.451 613.059C406.503 612.403 406.66 611.832 406.923 611.345C407.195 610.856 407.56 610.46 408.016 610.156C408.469 609.843 409.004 609.62 409.62 609.486C410.216 609.357 410.783 609.351 411.32 609.47C411.867 609.587 412.364 609.822 412.809 610.176C413.261 610.517 413.651 610.97 413.978 611.533C414.313 612.085 414.563 612.742 414.728 613.504C414.896 614.276 414.943 614.988 414.869 615.638C414.805 616.286 414.638 616.86 414.367 617.358C414.107 617.855 413.751 618.27 413.302 618.603C412.86 618.924 412.341 619.149 411.745 619.278ZM411.434 617.918C412.001 617.795 412.443 617.546 412.761 617.17C413.086 616.782 413.288 616.298 413.367 615.718C413.445 615.138 413.409 614.497 413.256 613.793C413.103 613.089 412.873 612.5 412.565 612.024C412.255 611.539 411.873 611.192 411.418 610.984C410.974 610.773 410.468 610.73 409.901 610.853C409.334 610.975 408.893 611.23 408.578 611.615C408.26 611.991 408.061 612.464 407.98 613.034C407.909 613.602 407.95 614.238 408.102 614.942C408.253 615.636 408.479 616.231 408.782 616.728C409.092 617.214 409.47 617.567 409.917 617.787C410.362 617.997 410.867 618.041 411.434 617.918Z" fill="white"/>
<path d="M426.357 615.787C425.767 615.942 425.196 615.974 424.644 615.881C424.092 615.788 423.583 615.581 423.116 615.259C422.656 614.925 422.25 614.484 421.899 613.935C421.548 613.387 421.274 612.74 421.078 611.995C420.864 611.183 420.771 610.453 420.797 609.805C420.82 609.147 420.952 608.57 421.194 608.072C421.445 607.572 421.791 607.16 422.234 606.837C422.673 606.504 423.198 606.257 423.807 606.097C424.397 605.942 424.963 605.912 425.505 606.007C426.057 606.1 426.563 606.313 427.023 606.647C427.49 606.968 427.899 607.404 428.25 607.952C428.609 608.489 428.887 609.134 429.086 609.889C429.287 610.653 429.364 611.361 429.319 612.014C429.283 612.665 429.141 613.245 428.893 613.755C428.654 614.262 428.318 614.692 427.883 615.044C427.455 615.384 426.947 615.632 426.357 615.787ZM425.987 614.442C426.548 614.294 426.979 614.026 427.28 613.636C427.588 613.235 427.768 612.743 427.822 612.16C427.875 611.577 427.811 610.938 427.627 610.241C427.444 609.545 427.188 608.966 426.86 608.504C426.529 608.033 426.132 607.703 425.669 607.515C425.216 607.324 424.708 607.302 424.148 607.45C423.587 607.597 423.157 607.871 422.859 608.27C422.558 608.659 422.38 609.14 422.324 609.713C422.277 610.284 422.346 610.917 422.529 611.614C422.709 612.3 422.962 612.885 423.285 613.369C423.616 613.84 424.01 614.176 424.466 614.377C424.919 614.568 425.426 614.589 425.987 614.442Z" fill="white"/>
<path d="M440.801 611.662C440.219 611.843 439.65 611.899 439.095 611.831C438.539 611.762 438.021 611.577 437.541 611.276C437.066 610.963 436.642 610.54 436.267 610.007C435.892 609.474 435.591 608.84 435.363 608.104C435.114 607.302 434.988 606.577 434.986 605.928C434.981 605.27 435.088 604.687 435.307 604.179C435.536 603.669 435.864 603.242 436.292 602.9C436.717 602.548 437.23 602.279 437.832 602.092C438.415 601.912 438.979 601.857 439.524 601.928C440.08 601.997 440.594 602.188 441.069 602.502C441.55 602.803 441.977 603.22 442.352 603.752C442.733 604.273 443.04 604.905 443.271 605.65C443.505 606.405 443.614 607.109 443.597 607.764C443.589 608.415 443.473 609.001 443.247 609.521C443.031 610.039 442.713 610.483 442.294 610.854C441.882 611.212 441.384 611.482 440.801 611.662ZM440.374 610.334C440.928 610.163 441.346 609.876 441.63 609.473C441.92 609.059 442.079 608.559 442.107 607.975C442.135 607.39 442.043 606.754 441.829 606.066C441.616 605.379 441.335 604.811 440.987 604.364C440.636 603.908 440.225 603.596 439.754 603.428C439.293 603.257 438.785 603.257 438.231 603.429C437.677 603.601 437.26 603.893 436.979 604.304C436.696 604.707 436.538 605.195 436.507 605.77C436.486 606.342 436.582 606.972 436.795 607.66C437.006 608.338 437.283 608.911 437.628 609.38C437.979 609.837 438.386 610.155 438.851 610.336C439.312 610.507 439.82 610.506 440.374 610.334Z" fill="white"/>
<path d="M448.105 598.848L450.54 597.995L453.806 607.309L452.433 607.79L449.629 599.792L448.567 600.165L448.105 598.848Z" fill="white"/>
<path d="M464.434 603.402C463.866 603.624 463.302 603.722 462.743 603.694C462.185 603.666 461.655 603.519 461.153 603.254C460.658 602.975 460.203 602.584 459.791 602.08C459.379 601.575 459.032 600.965 458.751 600.248C458.444 599.466 458.266 598.752 458.217 598.105C458.164 597.449 458.228 596.86 458.41 596.338C458.602 595.811 458.898 595.362 459.3 594.99C459.698 594.608 460.191 594.303 460.777 594.073C461.345 593.85 461.904 593.755 462.453 593.786C463.012 593.814 463.539 593.967 464.035 594.246C464.536 594.511 464.993 594.896 465.406 595.4C465.824 595.891 466.175 596.5 466.46 597.226C466.748 597.962 466.908 598.657 466.938 599.311C466.978 599.961 466.905 600.554 466.717 601.089C466.539 601.621 466.254 602.087 465.863 602.487C465.478 602.874 465.001 603.179 464.434 603.402ZM463.911 602.108C464.451 601.897 464.847 601.58 465.101 601.158C465.36 600.724 465.483 600.214 465.468 599.629C465.454 599.044 465.315 598.416 465.052 597.746C464.79 597.076 464.468 596.53 464.089 596.11C463.706 595.68 463.273 595.398 462.791 595.265C462.318 595.128 461.812 595.165 461.272 595.377C460.732 595.589 460.337 595.91 460.087 596.341C459.834 596.762 459.712 597.261 459.723 597.837C459.743 598.409 459.885 599.03 460.147 599.701C460.406 600.362 460.725 600.913 461.102 601.356C461.486 601.786 461.915 602.074 462.392 602.22C462.864 602.357 463.371 602.32 463.911 602.108Z" fill="white"/>
<path d="M470.788 590.091L473.154 589.063L477.087 598.115L475.753 598.695L472.375 590.922L471.344 591.371L470.788 590.091Z" fill="white"/>
<path d="M487.972 129.715C487.131 130.009 486.321 130.307 485.543 130.608C484.765 130.909 484.049 131.217 483.397 131.532C482.735 131.843 482.173 132.178 481.709 132.537C481.242 132.905 480.905 133.311 480.699 133.756C480.561 134.055 480.493 134.332 480.497 134.587C480.496 134.851 480.545 135.089 480.646 135.301C480.737 135.508 480.868 135.69 481.038 135.846C481.204 136.011 481.392 136.142 481.601 136.238C481.9 136.377 482.177 136.444 482.432 136.441C482.683 136.447 482.912 136.404 483.12 136.313C483.318 136.217 483.489 136.098 483.632 135.955C483.766 135.807 483.873 135.648 483.953 135.475C484.092 135.176 484.172 134.882 484.195 134.595C484.213 134.317 484.178 134.048 484.09 133.786L485.24 133.443C485.386 133.675 485.479 133.95 485.52 134.266C485.552 134.578 485.544 134.894 485.496 135.213C485.434 135.537 485.351 135.813 485.246 136.04C485.019 136.53 484.689 136.934 484.256 137.251C483.809 137.573 483.294 137.759 482.709 137.808C482.115 137.853 481.483 137.721 480.811 137.41C480.239 137.146 479.801 136.783 479.496 136.323C479.191 135.862 479.021 135.359 478.987 134.815C478.948 134.279 479.048 133.752 479.288 133.235C479.497 132.781 479.794 132.378 480.177 132.027C480.56 131.675 481.004 131.357 481.51 131.073C482.007 130.785 482.538 130.518 483.103 130.273C483.655 130.032 484.209 129.787 484.765 129.538L485.249 129.993L481.273 128.154L481.859 126.888L487.972 129.715Z" fill="white"/>
<path d="M471.617 122.425C472.181 122.657 472.655 122.977 473.039 123.384C473.423 123.791 473.704 124.264 473.882 124.803C474.047 125.347 474.104 125.943 474.053 126.593C474.001 127.242 473.829 127.923 473.536 128.635C473.215 129.411 472.849 130.05 472.437 130.551C472.022 131.061 471.567 131.441 471.074 131.693C470.572 131.94 470.047 132.059 469.5 132.049C468.948 132.049 468.381 131.929 467.799 131.689C467.235 131.456 466.765 131.139 466.391 130.735C466.007 130.328 465.732 129.853 465.567 129.309C465.389 128.77 465.326 128.176 465.377 127.527C465.415 126.883 465.583 126.2 465.88 125.479C466.181 124.749 466.547 124.137 466.978 123.644C467.399 123.147 467.862 122.77 468.368 122.514C468.865 122.253 469.393 122.114 469.952 122.096C470.498 122.083 471.053 122.193 471.617 122.425ZM471.1 123.72C470.563 123.499 470.058 123.453 469.583 123.582C469.095 123.716 468.654 123.999 468.259 124.432C467.865 124.864 467.53 125.413 467.256 126.079C466.981 126.744 466.836 127.36 466.819 127.926C466.798 128.502 466.915 129.004 467.17 129.434C467.417 129.86 467.808 130.184 468.344 130.405C468.88 130.626 469.388 130.667 469.867 130.529C470.341 130.401 470.774 130.125 471.165 129.702C471.546 129.275 471.874 128.729 472.149 128.063C472.419 127.407 472.572 126.788 472.606 126.207C472.626 125.632 472.516 125.126 472.273 124.691C472.027 124.265 471.636 123.941 471.1 123.72Z" fill="white"/>
<path d="M461.249 118.361C460.435 118.725 459.653 119.09 458.903 119.456C458.153 119.821 457.466 120.189 456.842 120.558C456.209 120.923 455.677 121.304 455.246 121.701C454.811 122.107 454.51 122.54 454.342 123C454.229 123.31 454.185 123.592 454.21 123.846C454.231 124.109 454.301 124.342 454.419 124.544C454.527 124.744 454.673 124.914 454.856 125.055C455.035 125.205 455.233 125.319 455.449 125.398C455.759 125.511 456.041 125.555 456.295 125.53C456.545 125.515 456.77 125.453 456.969 125.344C457.159 125.232 457.319 125.099 457.45 124.944C457.571 124.786 457.664 124.618 457.729 124.44C457.842 124.129 457.897 123.83 457.896 123.543C457.891 123.264 457.833 122.998 457.723 122.745L458.84 122.306C459.005 122.525 459.121 122.791 459.189 123.103C459.247 123.411 459.265 123.727 459.244 124.049C459.21 124.377 459.15 124.658 459.064 124.893C458.88 125.401 458.585 125.831 458.18 126.184C457.762 126.543 457.264 126.771 456.686 126.869C456.098 126.964 455.456 126.885 454.761 126.632C454.169 126.417 453.701 126.092 453.359 125.659C453.016 125.226 452.805 124.74 452.725 124.2C452.641 123.669 452.697 123.136 452.891 122.6C453.062 122.13 453.324 121.704 453.676 121.321C454.028 120.939 454.444 120.585 454.924 120.259C455.395 119.93 455.901 119.62 456.444 119.327C456.974 119.041 457.505 118.75 458.038 118.455L458.559 118.868L454.442 117.37L454.919 116.059L461.249 118.361Z" fill="white"/>
<path d="M448.027 113.696C447.229 114.093 446.463 114.489 445.728 114.885C444.994 115.281 444.322 115.676 443.714 116.07C443.097 116.461 442.58 116.863 442.165 117.277C441.747 117.7 441.464 118.145 441.315 118.612C441.215 118.926 441.183 119.21 441.218 119.462C441.25 119.724 441.329 119.954 441.455 120.152C441.571 120.346 441.724 120.51 441.912 120.644C442.098 120.787 442.3 120.893 442.519 120.963C442.833 121.063 443.117 121.095 443.369 121.06C443.619 121.035 443.841 120.964 444.035 120.847C444.22 120.728 444.375 120.588 444.499 120.428C444.614 120.265 444.7 120.093 444.758 119.912C444.858 119.598 444.901 119.297 444.888 119.009C444.872 118.731 444.803 118.468 444.683 118.22L445.781 117.735C445.955 117.948 446.082 118.209 446.162 118.517C446.233 118.823 446.264 119.138 446.256 119.46C446.235 119.789 446.187 120.073 446.111 120.311C445.947 120.826 445.67 121.268 445.28 121.637C444.877 122.012 444.388 122.261 443.814 122.382C443.231 122.501 442.587 122.448 441.881 122.224C441.281 122.033 440.801 121.728 440.441 121.309C440.081 120.89 439.85 120.412 439.748 119.876C439.643 119.349 439.677 118.814 439.849 118.271C440.001 117.795 440.245 117.358 440.581 116.962C440.917 116.565 441.319 116.194 441.785 115.849C442.242 115.502 442.736 115.171 443.266 114.857C443.784 114.549 444.303 114.237 444.823 113.92L445.36 114.311L441.186 112.983L441.61 111.653L448.027 113.696Z" fill="white"/>
<path d="M424.029 110.704L421.308 110.026L421.605 108.833L424.327 109.511L424.029 110.704Z" fill="white"/>
<path d="M401.599 101.85C402.2 101.958 402.73 102.171 403.191 102.488C403.652 102.805 404.027 103.208 404.314 103.697C404.59 104.194 404.771 104.765 404.858 105.411C404.945 106.057 404.919 106.758 404.782 107.516C404.633 108.343 404.41 109.044 404.113 109.62C403.814 110.207 403.45 110.674 403.021 111.024C402.582 111.371 402.094 111.598 401.556 111.704C401.017 111.82 400.438 111.822 399.818 111.71C399.217 111.601 398.692 111.39 398.24 111.074C397.779 110.757 397.411 110.35 397.135 109.853C396.847 109.364 396.66 108.797 396.574 108.151C396.475 107.514 396.496 106.811 396.634 106.044C396.775 105.266 397.004 104.591 397.321 104.018C397.628 103.444 398.001 102.978 398.442 102.62C398.873 102.261 399.359 102.014 399.902 101.878C400.433 101.751 400.999 101.741 401.599 101.85ZM401.366 103.225C400.795 103.122 400.291 103.183 399.854 103.409C399.405 103.643 399.034 104.013 398.739 104.518C398.445 105.024 398.233 105.631 398.105 106.34C397.977 107.048 397.964 107.681 398.067 108.238C398.168 108.805 398.388 109.272 398.729 109.638C399.059 110.003 399.51 110.237 400.08 110.34C400.651 110.443 401.156 110.377 401.595 110.141C402.032 109.915 402.397 109.554 402.69 109.058C402.973 108.561 403.178 107.958 403.306 107.249C403.433 106.551 403.451 105.914 403.362 105.339C403.261 104.772 403.047 104.301 402.718 103.927C402.387 103.562 401.937 103.328 401.366 103.225Z" fill="white"/>
<path d="M389.207 109.847L386.653 109.481L388.054 99.711L389.494 99.9176L388.291 108.307L389.405 108.466L389.207 109.847Z" fill="white"/>
<path d="M376.822 98.2727C377.429 98.3373 377.973 98.5109 378.456 98.7937C378.939 99.0764 379.342 99.4511 379.664 99.9179C379.975 100.394 380.198 100.95 380.331 101.588C380.464 102.226 380.49 102.927 380.408 103.693C380.319 104.528 380.148 105.244 379.893 105.84C379.637 106.447 379.308 106.94 378.906 107.319C378.493 107.698 378.023 107.959 377.495 108.104C376.965 108.259 376.387 108.303 375.761 108.236C375.154 108.172 374.615 107.999 374.142 107.717C373.659 107.434 373.262 107.055 372.951 106.579C372.628 106.113 372.4 105.56 372.267 104.923C372.123 104.294 372.092 103.592 372.175 102.816C372.259 102.031 372.438 101.341 372.712 100.746C372.977 100.151 373.316 99.6591 373.729 99.2707C374.133 98.8813 374.6 98.5992 375.132 98.4245C375.652 98.2587 376.216 98.2081 376.822 98.2727ZM376.689 99.6614C376.113 99.6 375.614 99.6978 375.195 99.9548C374.764 100.221 374.42 100.617 374.163 101.142C373.906 101.668 373.74 102.289 373.663 103.005C373.587 103.721 373.62 104.353 373.763 104.901C373.905 105.459 374.159 105.909 374.524 106.249C374.881 106.589 375.347 106.789 375.924 106.851C376.5 106.912 376.999 106.809 377.42 106.542C377.839 106.285 378.177 105.899 378.433 105.383C378.679 104.866 378.84 104.25 378.917 103.534C378.992 102.828 378.964 102.192 378.833 101.625C378.692 101.066 378.443 100.613 378.089 100.263C377.732 99.9234 377.266 99.7229 376.689 99.6614Z" fill="white"/>
<path d="M365.043 107.149L362.469 106.969L363.157 97.1233L364.609 97.2247L364.018 105.679L365.14 105.757L365.043 107.149Z" fill="white"/>
<path d="M351.85 96.5044C352.46 96.5248 353.016 96.6585 353.518 96.9054C354.02 97.1523 354.449 97.4968 354.804 97.939C355.149 98.3908 355.411 98.9298 355.591 99.5562C355.77 100.182 355.846 100.88 355.821 101.65C355.793 102.49 355.673 103.216 355.463 103.829C355.252 104.453 354.959 104.968 354.585 105.376C354.202 105.783 353.752 106.078 353.235 106.261C352.718 106.454 352.145 106.54 351.516 106.519C350.906 106.498 350.355 106.365 349.863 106.118C349.361 105.871 348.937 105.522 348.592 105.07C348.237 104.628 347.97 104.094 347.79 103.468C347.601 102.851 347.519 102.153 347.545 101.373C347.572 100.584 347.7 99.8826 347.931 99.27C348.151 98.657 348.454 98.1418 348.838 97.7244C349.212 97.3067 349.658 96.9914 350.175 96.7786C350.682 96.5754 351.241 96.4841 351.85 96.5044ZM351.819 97.8992C351.239 97.8798 350.749 98.0135 350.35 98.3003C349.939 98.5967 349.625 99.0165 349.407 99.5595C349.189 100.102 349.068 100.734 349.043 101.453C349.019 102.173 349.098 102.801 349.281 103.337C349.462 103.884 349.748 104.314 350.138 104.627C350.518 104.94 350.997 105.106 351.577 105.125C352.157 105.145 352.647 105.006 353.047 104.709C353.447 104.422 353.756 104.012 353.973 103.479C354.181 102.946 354.297 102.319 354.322 101.6C354.345 100.89 354.271 100.257 354.1 99.7014C353.918 99.155 353.637 98.7204 353.258 98.3975C352.878 98.0847 352.398 97.9185 351.819 97.8992Z" fill="white"/>
<path d="M336.829 96.3158C337.439 96.3096 338 96.4189 338.513 96.6437C339.025 96.8685 339.468 97.194 339.843 97.6202C340.207 98.0565 340.493 98.5836 340.699 99.2016C340.905 99.8195 341.012 100.513 341.02 101.283C341.029 102.123 340.941 102.854 340.757 103.476C340.574 104.108 340.304 104.636 339.948 105.06C339.583 105.483 339.146 105.798 338.638 106.003C338.13 106.218 337.561 106.329 336.931 106.335C336.321 106.341 335.765 106.232 335.263 106.007C334.751 105.782 334.312 105.452 333.948 105.016C333.573 104.589 333.283 104.067 333.077 103.449C332.861 102.842 332.748 102.148 332.741 101.368C332.733 100.578 332.83 99.8717 333.034 99.2496C333.228 98.6276 333.507 98.0997 333.873 97.6659C334.229 97.2323 334.66 96.8979 335.168 96.6627C335.666 96.4376 336.219 96.322 336.829 96.3158ZM336.859 97.7106C336.279 97.7165 335.795 97.8714 335.408 98.1753C335.011 98.4894 334.716 98.9224 334.521 99.4744C334.327 100.026 334.233 100.662 334.241 101.382C334.248 102.102 334.354 102.726 334.56 103.254C334.765 103.792 335.07 104.209 335.473 104.505C335.866 104.801 336.352 104.946 336.932 104.94C337.512 104.934 337.995 104.774 338.382 104.46C338.769 104.156 339.06 103.733 339.254 103.191C339.439 102.65 339.528 102.019 339.52 101.299C339.513 100.589 339.412 99.9597 339.216 99.4117C339.01 98.8737 338.711 98.4518 338.318 98.1457C337.925 97.8497 337.439 97.7047 336.859 97.7106Z" fill="white"/>
<path d="M326.16 106.499L323.582 106.619L323.123 96.7594L324.577 96.6917L324.971 105.158L326.095 105.105L326.16 106.499Z" fill="white"/>
<path d="M316.448 107.043L313.875 107.238L313.13 97.3957L314.58 97.2859L315.22 105.737L316.342 105.652L316.448 107.043Z" fill="white"/>
<path d="M291.915 99.675C292.519 99.5893 293.09 99.6244 293.627 99.7805C294.164 99.9365 294.646 100.201 295.073 100.575C295.491 100.96 295.843 101.446 296.128 102.031C296.413 102.617 296.61 103.291 296.718 104.054C296.836 104.885 296.845 105.621 296.744 106.262C296.644 106.912 296.446 107.471 296.148 107.937C295.841 108.405 295.449 108.774 294.972 109.043C294.497 109.323 293.947 109.507 293.323 109.596C292.719 109.681 292.154 109.645 291.626 109.488C291.089 109.332 290.611 109.061 290.193 108.676C289.766 108.303 289.411 107.823 289.125 107.237C288.832 106.663 288.63 105.989 288.521 105.217C288.409 104.435 288.414 103.722 288.535 103.079C288.646 102.437 288.854 101.877 289.16 101.399C289.456 100.923 289.841 100.535 290.313 100.236C290.777 99.9476 291.311 99.7607 291.915 99.675ZM292.126 101.054C291.552 101.136 291.093 101.352 290.749 101.704C290.396 102.067 290.16 102.535 290.039 103.108C289.918 103.68 289.909 104.323 290.01 105.036C290.111 105.749 290.298 106.354 290.57 106.85C290.844 107.357 291.2 107.73 291.638 107.971C292.067 108.213 292.568 108.294 293.142 108.212C293.717 108.131 294.175 107.909 294.517 107.547C294.861 107.196 295.095 106.738 295.217 106.176C295.329 105.614 295.334 104.977 295.233 104.264C295.133 103.561 294.951 102.951 294.685 102.433C294.412 101.927 294.06 101.547 293.63 101.295C293.202 101.053 292.701 100.973 292.126 101.054Z" fill="white"/>
<path d="M282.665 111.163L280.126 111.618L278.384 101.903L279.817 101.646L281.312 109.988L282.419 109.79L282.665 111.163Z" fill="white"/>
<path d="M267.27 104.068C267.866 103.939 268.438 103.932 268.985 104.049C269.532 104.166 270.032 104.395 270.485 104.737C270.93 105.09 271.316 105.549 271.643 106.112C271.97 106.676 272.215 107.334 272.379 108.086C272.557 108.907 272.619 109.641 272.564 110.287C272.512 110.943 272.355 111.514 272.092 112.001C271.82 112.49 271.455 112.886 270.999 113.19C270.545 113.503 270.011 113.727 269.395 113.86C268.799 113.989 268.232 113.995 267.695 113.876C267.148 113.759 266.651 113.524 266.206 113.171C265.754 112.829 265.364 112.376 265.037 111.813C264.702 111.261 264.452 110.604 264.287 109.842C264.119 109.07 264.072 108.359 264.146 107.708C264.21 107.06 264.377 106.486 264.648 105.988C264.908 105.491 265.264 105.076 265.713 104.744C266.155 104.423 266.674 104.197 267.27 104.068ZM267.581 105.428C267.014 105.551 266.572 105.801 266.254 106.176C265.929 106.564 265.727 107.048 265.648 107.628C265.569 108.208 265.606 108.85 265.759 109.553C265.912 110.257 266.142 110.846 266.45 111.322C266.76 111.807 267.142 112.154 267.597 112.362C268.041 112.573 268.547 112.617 269.114 112.494C269.681 112.371 270.122 112.116 270.437 111.731C270.755 111.355 270.954 110.882 271.035 110.312C271.106 109.744 271.065 109.108 270.913 108.404C270.762 107.71 270.536 107.115 270.233 106.618C269.923 106.132 269.545 105.78 269.098 105.559C268.653 105.349 268.148 105.305 267.581 105.428Z" fill="white"/>
<path d="M252.658 107.559C253.248 107.404 253.819 107.373 254.371 107.465C254.923 107.558 255.432 107.765 255.899 108.087C256.359 108.421 256.765 108.862 257.116 109.411C257.467 109.959 257.741 110.606 257.937 111.351C258.151 112.163 258.244 112.893 258.218 113.541C258.195 114.199 258.063 114.777 257.821 115.274C257.57 115.775 257.224 116.186 256.781 116.51C256.342 116.842 255.817 117.089 255.208 117.249C254.618 117.404 254.052 117.434 253.51 117.339C252.958 117.247 252.452 117.033 251.992 116.699C251.525 116.378 251.116 115.942 250.764 115.394C250.406 114.857 250.128 114.212 249.929 113.458C249.728 112.694 249.65 111.985 249.696 111.332C249.731 110.682 249.874 110.101 250.122 109.591C250.361 109.084 250.697 108.654 251.132 108.302C251.56 107.962 252.068 107.714 252.658 107.559ZM253.028 108.904C252.467 109.052 252.036 109.32 251.735 109.71C251.427 110.111 251.246 110.603 251.193 111.186C251.14 111.769 251.204 112.409 251.388 113.105C251.571 113.801 251.827 114.38 252.155 114.842C252.486 115.313 252.883 115.643 253.346 115.831C253.799 116.022 254.306 116.044 254.867 115.896C255.428 115.749 255.858 115.476 256.156 115.076C256.457 114.687 256.635 114.206 256.691 113.633C256.738 113.062 256.669 112.429 256.486 111.732C256.306 111.046 256.053 110.461 255.73 109.977C255.399 109.506 255.005 109.17 254.549 108.969C254.096 108.778 253.589 108.757 253.028 108.904Z" fill="white"/>
<path d="M238.213 111.684C238.796 111.503 239.365 111.447 239.92 111.516C240.475 111.584 240.994 111.769 241.474 112.07C241.949 112.383 242.373 112.807 242.748 113.34C243.123 113.872 243.424 114.507 243.652 115.242C243.901 116.044 244.027 116.77 244.029 117.418C244.034 118.076 243.927 118.659 243.708 119.167C243.479 119.678 243.151 120.104 242.723 120.446C242.298 120.798 241.785 121.067 241.183 121.254C240.6 121.435 240.036 121.489 239.49 121.418C238.935 121.349 238.42 121.158 237.946 120.845C237.465 120.544 237.038 120.127 236.663 119.594C236.282 119.073 235.975 118.441 235.744 117.696C235.51 116.941 235.401 116.237 235.418 115.582C235.426 114.931 235.542 114.345 235.768 113.825C235.984 113.307 236.302 112.863 236.721 112.492C237.133 112.134 237.631 111.865 238.213 111.684ZM238.641 113.012C238.087 113.184 237.668 113.471 237.385 113.873C237.095 114.287 236.936 114.787 236.908 115.372C236.88 115.956 236.972 116.592 237.186 117.28C237.399 117.968 237.68 118.535 238.028 118.982C238.379 119.438 238.79 119.75 239.261 119.918C239.722 120.089 240.23 120.089 240.784 119.917C241.338 119.745 241.755 119.453 242.036 119.042C242.319 118.64 242.477 118.151 242.508 117.576C242.529 117.004 242.433 116.374 242.22 115.686C242.009 115.008 241.732 114.435 241.387 113.966C241.036 113.509 240.629 113.191 240.164 113.01C239.703 112.839 239.195 112.84 238.641 113.012Z" fill="white"/>
<path d="M230.91 124.498L228.475 125.352L225.209 116.037L226.582 115.556L229.386 123.554L230.448 123.181L230.91 124.498Z" fill="white"/>
<path d="M214.581 119.944C215.149 119.722 215.713 119.625 216.271 119.653C216.83 119.681 217.36 119.827 217.862 120.093C218.357 120.371 218.812 120.762 219.224 121.266C219.636 121.771 219.983 122.381 220.264 123.098C220.571 123.88 220.749 124.595 220.798 125.241C220.851 125.897 220.787 126.486 220.605 127.009C220.413 127.535 220.117 127.984 219.715 128.356C219.317 128.738 218.824 129.044 218.238 129.274C217.67 129.496 217.111 129.592 216.562 129.56C216.003 129.532 215.476 129.379 214.98 129.1C214.479 128.835 214.022 128.45 213.609 127.946C213.191 127.455 212.84 126.846 212.555 126.12C212.267 125.384 212.107 124.69 212.077 124.036C212.037 123.385 212.11 122.793 212.298 122.257C212.476 121.726 212.761 121.26 213.152 120.859C213.537 120.472 214.013 120.167 214.581 119.944ZM215.104 121.238C214.564 121.449 214.168 121.766 213.914 122.188C213.655 122.622 213.532 123.132 213.547 123.717C213.561 124.302 213.7 124.93 213.963 125.6C214.225 126.271 214.547 126.816 214.926 127.237C215.309 127.666 215.742 127.948 216.224 128.081C216.697 128.218 217.203 128.181 217.743 127.969C218.283 127.758 218.678 127.436 218.928 127.005C219.181 126.584 219.303 126.085 219.292 125.509C219.272 124.937 219.13 124.316 218.868 123.646C218.609 122.985 218.29 122.433 217.913 121.99C217.529 121.56 217.1 121.272 216.623 121.126C216.151 120.989 215.644 121.026 215.104 121.238Z" fill="white"/>
<path d="M208.227 133.255L205.861 134.283L201.928 125.231L203.262 124.651L206.64 132.424L207.671 131.976L208.227 133.255Z" fill="white"/>
<path d="M438.478 253.727C435.921 232.136 425.552 215.375 407.37 203.443C389.188 191.511 366.887 185.545 340.467 185.545C321.149 185.545 304.245 188.67 289.757 194.92C275.41 201.17 264.188 209.764 256.092 220.702C248.137 231.639 244.16 244.068 244.16 257.989C244.16 269.636 246.93 279.651 252.47 288.031C258.151 296.27 265.396 303.159 274.203 308.699C283.009 314.097 292.242 318.571 301.901 322.122C311.561 325.531 320.438 328.301 328.535 330.432L372.853 342.364C384.217 345.347 396.859 349.466 410.779 354.722C424.842 359.977 438.265 367.151 451.049 376.241C463.975 385.19 474.629 396.696 483.009 410.759C491.39 424.821 495.58 442.08 495.58 462.534C495.58 486.114 489.401 507.42 477.044 526.455C464.828 545.489 446.93 560.616 423.35 571.838C399.913 583.06 371.433 588.67 337.91 588.67C306.66 588.67 279.6 583.628 256.731 573.543C234.004 563.457 216.106 549.395 203.038 531.355C190.112 513.315 182.796 492.364 181.092 468.5H235.637C237.058 484.977 242.597 498.614 252.257 509.409C262.058 520.062 274.416 528.017 289.33 533.273C304.387 538.386 320.58 540.943 337.91 540.943C358.08 540.943 376.191 537.676 392.242 531.142C408.294 524.466 421.007 515.233 430.382 503.443C439.757 491.511 444.444 477.591 444.444 461.682C444.444 447.193 440.396 435.403 432.299 426.312C424.203 417.222 413.549 409.835 400.339 404.153C387.129 398.472 372.853 393.5 357.512 389.239L303.819 373.898C269.728 364.097 242.74 350.105 222.853 331.923C202.967 313.741 193.024 289.949 193.024 260.545C193.024 236.114 199.629 214.807 212.839 196.625C226.191 178.301 244.089 164.097 266.532 154.011C289.117 143.784 314.33 138.67 342.171 138.67C370.296 138.67 395.296 143.713 417.171 153.798C439.046 163.741 456.376 177.378 469.16 194.707C482.086 212.037 488.904 231.71 489.615 253.727H438.478Z" fill="#DFA100"/>
<path fill-rule="evenodd" clip-rule="evenodd" d="M407.37 203.443C425.552 215.375 435.921 232.136 438.478 253.727H478.478C475.921 232.136 465.552 215.375 447.37 203.443C429.188 191.511 406.887 185.545 380.467 185.545C373.464 185.545 366.779 185.956 360.411 186.777C378.305 189.086 393.958 194.642 407.37 203.443ZM362.299 139.58C355.778 138.974 349.069 138.67 342.171 138.67C314.33 138.67 289.117 143.784 266.532 154.011C244.089 164.097 226.191 178.301 212.839 196.625C199.629 214.807 193.024 236.114 193.024 260.545C193.024 289.949 202.967 313.741 222.853 331.923C242.74 350.105 269.728 364.097 303.819 373.898L357.512 389.239C372.853 393.5 387.129 398.472 400.339 404.153C413.549 409.835 424.203 417.222 432.299 426.312C440.396 435.403 444.444 447.193 444.444 461.682C444.444 477.591 439.757 491.511 430.382 503.443C421.007 515.233 408.294 524.466 392.242 531.142C381.744 535.416 370.364 538.292 358.103 539.77C364.531 540.552 371.134 540.943 377.91 540.943C398.08 540.943 416.191 537.676 432.242 531.142C448.294 524.466 461.007 515.233 470.382 503.443C479.757 491.511 484.444 477.591 484.444 461.682C484.444 447.193 480.396 435.403 472.299 426.312C464.203 417.222 453.549 409.835 440.339 404.153C427.129 398.472 412.853 393.5 397.512 389.239L343.819 373.898C309.728 364.097 282.74 350.105 262.853 331.923C242.967 313.741 233.024 289.949 233.024 260.545C233.024 236.114 239.629 214.807 252.839 196.625C266.191 178.301 284.089 164.097 306.532 154.011C323.617 146.275 342.206 141.464 362.299 139.58ZM221.092 468.5H181.092C182.796 492.364 190.112 513.315 203.038 531.355C216.106 549.395 234.004 563.457 256.731 573.543C279.6 583.628 306.66 588.67 337.91 588.67C344.842 588.67 351.558 588.431 358.059 587.951C335.055 586.231 314.612 581.428 296.731 573.543C274.004 563.457 256.106 549.395 243.038 531.355C230.112 513.315 222.796 492.364 221.092 468.5Z" fill="url(#paint0_radial_113_626)" fill-opacity="0.42"/>
<path fill-rule="evenodd" clip-rule="evenodd" d="M478.478 253.727H489.615C488.904 231.71 482.086 212.037 469.16 194.707C456.376 177.378 439.046 163.741 417.171 153.798C400.661 146.186 382.37 141.447 362.299 139.58C342.206 141.464 323.617 146.275 306.532 154.011C284.089 164.097 266.191 178.301 252.839 196.625C239.629 214.807 233.024 236.114 233.024 260.545C233.024 289.949 242.967 313.741 262.853 331.923C282.74 350.105 309.728 364.097 343.819 373.898L397.512 389.239C412.853 393.5 427.129 398.472 440.339 404.153C453.549 409.835 464.203 417.222 472.299 426.312C480.396 435.403 484.444 447.193 484.444 461.682C484.444 477.591 479.757 491.511 470.382 503.443C461.007 515.233 448.294 524.466 432.242 531.142C416.191 537.676 398.08 540.943 377.91 540.943C371.134 540.943 364.531 540.552 358.103 539.77C351.618 540.552 344.887 540.943 337.91 540.943C320.58 540.943 304.387 538.386 289.33 533.273C274.416 528.017 262.058 520.062 252.257 509.409C242.597 498.614 237.058 484.977 235.637 468.5H221.092C222.796 492.364 230.112 513.315 243.038 531.355C256.106 549.395 274.004 563.457 296.731 573.543C314.612 581.428 335.055 586.231 358.059 587.951C382.996 586.11 404.759 580.739 423.35 571.838C446.93 560.616 464.828 545.489 477.044 526.455C489.401 507.42 495.58 486.114 495.58 462.534C495.58 442.08 491.39 424.821 483.009 410.758C474.629 396.696 463.975 385.19 451.049 376.241C438.265 367.151 424.842 359.977 410.779 354.722C396.859 349.466 384.217 345.347 372.853 342.364L328.535 330.432C320.438 328.301 311.561 325.531 301.901 322.122C292.242 318.571 283.009 314.097 274.203 308.699C265.396 303.159 258.151 296.27 252.47 288.031C246.93 279.651 244.16 269.636 244.16 257.989C244.16 244.068 248.137 231.639 256.092 220.702C264.188 209.764 275.41 201.17 289.757 194.92C304.245 188.67 321.149 185.545 340.467 185.545C347.398 185.545 354.046 185.956 360.411 186.777C366.779 185.956 373.464 185.545 380.467 185.545C406.887 185.545 429.188 191.511 447.37 203.443C465.552 215.375 475.921 232.136 478.478 253.727Z" fill="url(#paint1_radial_113_626)"/>
<defs>
<radialGradient id="paint0_radial_113_626" cx="0" cy="0" r="1" gradientUnits="userSpaceOnUse" gradientTransform="translate(332.768 363.67) rotate(90) scale(225 151.676)">
<stop stop-color="#C16C1E"/>
<stop offset="1" stop-color="#C89F34" stop-opacity="0"/>
</radialGradient>
<radialGradient id="paint1_radial_113_626" cx="0" cy="0" r="1" gradientUnits="userSpaceOnUse" gradientTransform="translate(358.336 363.765) rotate(90) scale(224.185 137.244)">
<stop stop-color="#FFE974"/>
<stop offset="1" stop-color="#FFE974" stop-opacity="0.29"/>
</radialGradient>
</defs>
</svg>
