<svg width="174" height="199" viewBox="0 0 174 199" fill="none" xmlns="http://www.w3.org/2000/svg">
<path fill-rule="evenodd" clip-rule="evenodd" d="M119.988 24.5554C122.715 21.3543 124.561 17.4313 124.252 13.0355C123.363 0.369912 105.733 3.15618 102.303 9.54868C98.8734 15.9412 99.2809 32.1563 103.713 33.2988C105.481 33.7544 109.247 32.6383 113.079 30.3283L110.673 47.347H124.878L119.988 24.5554Z" fill="#915B3C"/>
<path fill-rule="evenodd" clip-rule="evenodd" d="M121.079 27.4065C122.862 19.4753 127.941 14.0688 127.165 10.5239C126.648 8.16058 125.27 6.69094 123.03 6.11494C121.872 1.42958 118.137 -0.563281 111.824 0.136345C102.355 1.18579 96.5762 5.11806 99.072 13.7708C101.366 13.7708 104.136 12.9411 107.965 14.3626C109.181 14.8137 110.05 16.2124 110.573 18.5588H112.303C113.983 15.7743 115.639 14.751 117.272 15.4891C118.905 16.2271 119.276 18.0199 118.385 20.8673L119.238 27.4065H121.079Z" fill="#191847"/>
<path fill-rule="evenodd" clip-rule="evenodd" d="M164.531 121.327H96.4694C91.2396 121.327 87 125.566 87 130.796V185.245C87 190.475 91.2396 194.714 96.4694 194.714H164.531C169.76 194.714 174 190.475 174 185.245V130.796C174 125.566 169.76 121.327 164.531 121.327ZM155.061 137.898C156.369 137.898 157.429 138.958 157.429 140.265V175.776C157.429 177.083 156.369 178.143 155.061 178.143H105.939C104.631 178.143 103.571 177.083 103.571 175.776V140.265C103.571 138.958 104.631 137.898 105.939 137.898H155.061Z" fill="#C5CFD6"/>
<path fill-rule="evenodd" clip-rule="evenodd" d="M28.3141 191.755C39.9826 177.506 47.8779 166.943 51.9998 160.065C59.0575 148.288 64.8338 137.808 66.6567 133.805C71.0036 124.259 56.6495 119.789 53.4008 124.242C48.4838 130.981 37.9828 152.187 21.8979 187.859L28.3141 191.755Z" fill="#B28B67"/>
<path fill-rule="evenodd" clip-rule="evenodd" d="M52.2251 187.612L73.941 132.948C78.5856 122.983 56.156 116.433 52.7425 121.071C44.993 131.599 26.5741 173.132 24.2653 176.269L52.2251 187.612Z" fill="#2F3676"/>
<path fill-rule="evenodd" clip-rule="evenodd" d="M110.062 176.65C105.832 170.479 90.4454 149.72 82.0647 141.13C79.6564 138.662 77.3066 136.293 75.084 134.085C68.4779 127.523 55.3227 138.552 61.9167 144.529C78.3383 159.414 102.298 179.508 104.3 181.3C107.106 183.811 112.721 180.528 110.062 176.65Z" fill="#915B3C"/>
<path fill-rule="evenodd" clip-rule="evenodd" d="M109.073 173.862C110.53 175.062 111.478 176.042 111.917 176.802C112.45 177.726 113.075 179.164 113.791 181.115C112.719 181.734 103.082 187.297 84.8823 197.805C82.6972 195.755 82.3568 194.164 83.861 193.032C85.3652 191.899 86.6065 190.944 87.5849 190.166L97.563 176.419C97.755 176.154 98.1251 176.095 98.3896 176.287C98.3941 176.291 98.3986 176.294 98.403 176.297L100.476 177.894C102.378 177.728 103.798 177.375 104.734 176.834C105.496 176.394 106.369 175.48 107.355 174.091L107.355 174.091C107.734 173.558 108.473 173.433 109.006 173.811C109.029 173.827 109.051 173.844 109.073 173.862Z" fill="#E4E4E4"/>
<path fill-rule="evenodd" clip-rule="evenodd" d="M33.3334 189.626C33.9955 191.393 34.3265 192.716 34.3265 193.593C34.3265 194.661 34.1487 196.218 33.7931 198.265C32.5551 198.265 21.4282 198.265 0.412483 198.265C-0.45496 195.398 0.0457764 193.849 1.9147 193.621C3.78363 193.392 5.33617 193.186 6.57234 193.001L22.0874 186.085C22.3859 185.952 22.7358 186.086 22.8689 186.384C22.8712 186.389 22.8734 186.395 22.8755 186.4L23.8728 188.819C25.6029 189.626 27.0088 190.03 28.0905 190.03C28.9694 190.03 30.1831 189.675 31.7316 188.965L31.7316 188.965C32.3259 188.693 33.0285 188.953 33.3009 189.548C33.3127 189.573 33.3235 189.599 33.3334 189.626Z" fill="#E4E4E4"/>
<path fill-rule="evenodd" clip-rule="evenodd" d="M81.755 135.679C99.8042 132.738 111.894 130.728 118.024 129.647C135.497 126.566 140.592 117.163 137.579 96.6483H105.386C101.126 97.8786 83.3244 105.488 51.9824 119.475C46.3434 122.274 47.3936 130.528 48.4243 133.247C48.4663 133.358 57.9727 149.648 76.9433 182.116L103.279 165.339L81.7056 137.656C81.1358 136.508 81.1523 135.849 81.755 135.679Z" fill="#5C63AB"/>
<path fill-rule="evenodd" clip-rule="evenodd" d="M79.4356 88.9007L60.557 102.764C55.4368 104.145 51.159 105.864 47.7236 107.921C46.9121 108.66 45.9314 110.158 49.2968 109.899C52.6623 109.64 56.2139 109.519 56.6782 110.667C57.1426 111.815 55.106 113.188 56.0447 114.736C56.6705 115.769 59.627 113.18 64.9142 106.969L83.6089 99.217L79.4356 88.9007ZM151.92 89.3791L139.552 89.4278C147.189 114.08 151.311 127.16 151.92 128.669C153.289 132.063 150.391 137.231 149.152 140.009C153.188 141.815 152.758 135.126 157.85 137.495C162.498 139.657 166.033 143.575 171.402 140.262C172.063 139.855 172.786 138.321 171.038 137.122C166.684 134.137 160.408 128.911 159.56 127.191C158.404 124.845 155.857 112.241 151.92 89.3791Z" fill="#915B3C"/>
<path fill-rule="evenodd" clip-rule="evenodd" d="M116.772 37.4822L111.655 36.6044C92.6666 53.0074 84.8676 84.5195 61.5928 101.213L67.1949 108.157C107.572 103.157 117.58 64.7202 116.772 37.4822Z" fill="#E87613"/>
<path fill-rule="evenodd" clip-rule="evenodd" d="M139.082 101.796C118.562 101.796 103.468 101.796 93.7994 101.796C91.7302 101.796 92.1201 98.8081 92.4192 97.3005C95.8713 79.9002 109.347 61.1436 109.347 36.3747L122.409 34.3265C133.212 51.7019 136.948 73.0945 139.082 101.796Z" fill="#DDE3E9"/>
<path fill-rule="evenodd" clip-rule="evenodd" d="M138.718 51.4057C140.615 50.8604 142.117 49.5886 143.224 47.5903C147.998 38.976 146.274 34.2333 141.172 32.6743C136.07 31.1153 131.521 34.3265 123.392 34.3265C122.95 34.3265 122.545 34.3542 122.177 34.4097L118.088 34.643C106.357 74.4029 103.121 100.93 108.382 114.224H144.022C146.134 119.148 148.155 123.291 150.084 126.653H159.796C160.71 97.1009 153.684 72.0185 138.718 51.4057Z" fill="#FF9B21"/>
<path fill-rule="evenodd" clip-rule="evenodd" d="M136.261 93.8047C135.141 103.183 133.319 109.99 130.796 114.225H144.022C141.559 108.481 138.972 101.674 136.261 93.8047Z" fill="black" fill-opacity="0.1"/>
</svg>
