<svg width="1440" height="482" viewBox="0 0 1440 482" fill="none" xmlns="http://www.w3.org/2000/svg">
<path d="M989.687 171.22C720.529 203.453 0 203.601 0 203.601V306H1440V0C1378.28 24.7422 1218.05 143.872 989.687 171.22Z" fill="url(#paint0_linear_8_6)"/>
<path d="M1073.16 208.762C1014.47 200.922 879.53 242.893 799.392 275.737C719.253 308.581 507.052 279.114 408.655 255.205C217.518 208.762 0 275.737 0 275.737V306H1440V87C1378.28 110.495 1194.11 224.92 1073.16 208.762Z" fill="url(#paint1_linear_8_6)"/>
<path d="M1072.16 190.762C1013.47 182.922 878.53 224.893 798.392 257.737C718.253 290.581 506.052 261.114 407.655 237.205C216.518 190.762 -1 257.737 -1 257.737V288H1439V69C1377.28 92.4952 1193.11 206.92 1072.16 190.762Z" fill="url(#paint2_linear_8_6)" fill-opacity="0.3"/>
<path d="M1072.16 208.762C1013.47 200.922 878.53 242.893 798.392 275.737C718.253 308.581 506.052 279.114 407.655 255.205C216.518 208.762 -1 275.737 -1 275.737V306H1439V87C1377.28 110.495 1193.11 224.92 1072.16 208.762Z" fill="url(#paint3_linear_8_6)" fill-opacity="0.3"/>
<path d="M1073.16 361.928C1014.47 366.437 879.53 342.297 799.392 323.406C719.253 304.516 507.052 321.464 408.655 335.216C217.518 361.928 0 323.406 0 323.406V306H1440V431.961C1378.28 418.447 1194.11 352.634 1073.16 361.928Z" fill="url(#paint4_linear_8_6)"/>
<path d="M1072.16 361.928C1013.47 366.437 878.53 342.297 798.392 323.406C718.253 304.516 506.052 321.464 407.655 335.216C216.518 361.928 -1 323.406 -1 323.406V306H1439V431.961C1377.28 418.447 1193.11 352.634 1072.16 361.928Z" fill="url(#paint5_linear_8_6)" fill-opacity="0.3"/>
<defs>
<linearGradient id="paint0_linear_8_6" x1="719.723" y1="80.0425" x2="719.723" y2="319.322" gradientUnits="userSpaceOnUse">
<stop offset="0.463542" stop-color="#FFDC23"/>
<stop offset="1" stop-color="#FFE923"/>
</linearGradient>
<linearGradient id="paint1_linear_8_6" x1="933.785" y1="174.812" x2="950.105" y2="288.934" gradientUnits="userSpaceOnUse">
<stop stop-color="#FFE923"/>
<stop offset="1" stop-color="#FFB423"/>
</linearGradient>
<linearGradient id="paint2_linear_8_6" x1="932.785" y1="156.812" x2="949.105" y2="270.934" gradientUnits="userSpaceOnUse">
<stop stop-color="#FFE923"/>
<stop offset="1" stop-color="#FFB423"/>
</linearGradient>
<linearGradient id="paint3_linear_8_6" x1="932.785" y1="174.812" x2="949.105" y2="288.934" gradientUnits="userSpaceOnUse">
<stop stop-color="#FFE923"/>
<stop offset="1" stop-color="#FFB423"/>
</linearGradient>
<linearGradient id="paint4_linear_8_6" x1="933.785" y1="381.454" x2="939.257" y2="314.924" gradientUnits="userSpaceOnUse">
<stop stop-color="#FFE923"/>
<stop offset="1" stop-color="#FFB423"/>
</linearGradient>
<linearGradient id="paint5_linear_8_6" x1="932.785" y1="381.454" x2="938.257" y2="314.924" gradientUnits="userSpaceOnUse">
<stop stop-color="#FFE923"/>
<stop offset="1" stop-color="#FFB423"/>
</linearGradient>
</defs>
</svg>
