<svg width="198" height="202" viewBox="0 0 198 202" fill="none" xmlns="http://www.w3.org/2000/svg">
<path fill-rule="evenodd" clip-rule="evenodd" d="M106.243 0C159.319 0 197.817 47.3522 197.817 100.429C197.817 153.708 159.522 201.559 106.243 201.559C48.9609 201.559 0 157.71 0 100.429C0 43.3353 49.1494 0 106.243 0Z" fill="#A8A8A8"/>
<path fill-rule="evenodd" clip-rule="evenodd" d="M112.402 21.8505C146.841 22.9617 181.822 36.3177 193.245 68.8265C205.438 103.527 191.416 141.296 162.242 163.693C130.279 188.23 86.9534 198.638 53.598 176.031C17.0452 151.256 -2.00494 104.293 13.731 63.034C27.7725 26.218 73.0195 20.5797 112.402 21.8505Z" fill="#E9E9E9"/>
</svg>
