<svg width="139" height="223" viewBox="0 0 139 223" fill="none" xmlns="http://www.w3.org/2000/svg">
<path fill-rule="evenodd" clip-rule="evenodd" d="M66.3234 27.8374C63.8323 24.9132 62.1462 21.3297 62.4279 17.3142C63.2397 5.74438 79.3452 8.28958 82.4781 14.129C85.611 19.9684 85.2387 34.7806 81.1897 35.8243C79.575 36.2405 76.1352 35.221 72.6343 33.1108L74.8318 48.657H61.8566L66.3234 27.8374Z" fill="#B28B67"/>
<path fill-rule="evenodd" clip-rule="evenodd" d="M88.2263 6.03387C87.9576 5.08942 87.2349 4.28077 86.2609 4.04087C86.0247 3.98267 85.7808 3.95917 85.5378 3.96897C85.4506 3.97245 85.4262 3.99759 85.3854 3.93663C85.3552 3.89143 85.3545 3.78101 85.3421 3.7279C85.3034 3.56273 85.255 3.39962 85.1953 3.24074C84.9915 2.69884 84.649 2.21925 84.2362 1.81524C83.4639 1.05943 82.4206 0.537798 81.3365 0.443427C80.7432 0.391804 80.1543 0.488198 79.5934 0.681199C79.303 0.781108 79.0214 0.905516 78.7471 1.04306C78.6645 1.08446 78.3966 1.28722 78.3138 1.27409C78.2223 1.2596 78.0383 1.03216 77.9639 0.975068C77.0441 0.269349 75.9082 -0.00811691 74.7625 0.000180248C73.4693 0.00991929 72.224 0.0745369 71.1455 0.862875C70.9172 1.02978 70.6998 1.21252 70.4927 1.40492C70.3837 1.50621 70.2781 1.61131 70.1774 1.72077C70.1166 1.7868 70.0575 1.85433 70.0005 1.92367C69.9039 2.04137 69.9194 2.08003 69.7841 1.99791C69.265 1.68256 68.6635 1.53508 68.0577 1.60953C67.6979 1.65377 67.3479 1.76177 67.0156 1.90393C66.9024 1.95233 66.6405 2.14536 66.5199 2.14724C66.4002 2.14909 66.142 1.97015 66.0188 1.92467C65.3531 1.67894 64.6356 1.61837 63.936 1.73191C63.2143 1.84908 62.5053 2.13702 61.8939 2.53492C61.5998 2.72632 61.3432 2.93839 61.1371 3.22299C61.0481 3.34587 60.9676 3.47585 60.8668 3.58978C60.8077 3.6565 60.6908 3.72495 60.6591 3.80938C60.6781 3.75882 59.8698 3.44723 59.7935 3.42732C59.3872 3.32119 58.9735 3.34271 58.5756 3.47365C57.8274 3.71987 57.184 4.27204 56.6551 4.83815C56.3835 5.12893 56.1458 5.45035 55.9441 5.79279C55.8474 5.95682 55.759 6.12554 55.6781 6.29784C55.6389 6.38131 55.6129 6.48573 55.5612 6.56093C55.4947 6.65782 55.4499 6.65967 55.3294 6.70192C54.717 6.91643 54.1589 7.27953 53.7338 7.77017C53.3038 8.26655 53.0248 8.87783 52.9079 9.52156C52.901 9.55948 52.8969 9.71662 52.8747 9.73714C52.8442 9.7654 52.7211 9.75291 52.6745 9.75838C52.5132 9.7773 52.3531 9.80545 52.195 9.84287C51.9037 9.91182 51.6202 10.0133 51.3519 10.146C50.3063 10.6633 49.5586 11.6332 49.1927 12.7245C48.8087 13.8698 48.8155 15.182 49.2744 16.3059C49.3485 16.4874 49.4368 16.6636 49.5404 16.8303C49.604 16.9327 49.6245 16.9329 49.5832 17.0403C49.5372 17.1597 49.453 17.2758 49.3984 17.3925C49.22 17.7733 49.0953 18.1773 49.0165 18.5898C48.8873 19.2666 48.8232 19.9778 48.9507 20.6597C49.0099 20.9763 49.1131 21.2858 49.2704 21.5678C49.3506 21.7116 49.4445 21.848 49.5505 21.9741C49.6055 22.0396 49.664 22.1022 49.7251 22.1621C49.7601 22.1964 49.8059 22.2263 49.8356 22.2646C49.9082 22.3578 49.9235 22.2811 49.886 22.418C49.8337 22.6094 49.7151 22.7983 49.6425 22.9846C49.5676 23.1765 49.5 23.371 49.4381 23.5675C49.3128 23.9654 49.2068 24.3705 49.1406 24.7825C49.0134 25.5736 49.0357 26.4165 49.4099 27.1425C49.5699 27.4531 49.7994 27.7255 50.0778 27.9374C50.214 28.0411 50.3616 28.1304 50.5164 28.2038C50.596 28.2416 50.6975 28.2578 50.7338 28.3347C50.7729 28.4175 50.7149 28.5817 50.7017 28.6742C50.5866 29.4788 50.5289 30.3236 50.7681 31.1121C50.9884 31.8383 51.4734 32.4795 52.1031 32.9041C53.3248 33.7276 54.9715 33.6811 56.2551 33.0219C56.5897 32.85 56.9027 32.6366 57.1819 32.3849C57.893 33.3421 59.3562 33.3118 60.3954 33.0391C61.6901 32.6993 62.729 31.799 63.3276 30.6162C64.1461 31.6125 65.8638 31.2893 66.4313 30.2084C66.5702 29.9438 66.6526 29.6523 66.6932 29.3572C66.7146 29.2021 66.7009 29.0456 66.717 28.8917C66.7374 28.6955 66.8684 28.5049 66.9437 28.3152C67.0904 27.946 67.1815 27.5645 67.1854 27.1663C67.1874 26.9583 67.1611 26.7556 67.1413 26.5494C67.1235 26.3637 67.175 26.1907 67.2043 26.0074C66.8722 26.0621 66.4677 25.9725 66.1548 25.8762C65.8478 25.7818 65.5603 25.5329 65.3436 25.3056C64.8405 24.7779 64.5331 24.0861 64.3229 23.3976C63.8615 21.8864 64.0506 20.0733 65.5706 19.2439C66.2787 18.8575 68.4001 18.8588 69.2434 19.0497C70.1302 19.2505 71.1355 21.2072 71.185 21.3911C71.2156 21.5049 71.2002 21.6458 71.3047 21.7217C71.5345 21.8884 71.9135 21.599 72.083 21.4562C72.3755 21.2097 72.5842 20.8817 72.7649 20.5492C73.1586 19.825 73.476 19.0482 73.7002 18.2553C73.8731 17.644 73.9836 17.0136 74.2095 16.4179C74.4343 15.8251 74.7887 15.2953 75.3397 14.9595C75.9392 14.5942 76.6263 14.4018 77.2843 14.1722C77.9366 13.9447 78.5776 13.6666 79.0832 13.1839C79.1944 13.0777 79.3024 12.9649 79.3919 12.8399C79.4625 12.7413 79.5323 12.5524 79.64 12.4898C79.8073 12.3925 80.0515 12.6456 80.1962 12.7375C80.9101 13.1909 81.5056 13.8232 81.986 14.514C82.4637 15.201 82.8556 15.862 83.1742 16.6292C83.4104 17.1981 83.5579 17.9268 83.9734 18.3931C84.1589 18.6013 85.5378 18.7272 85.9844 18.5454C86.4311 18.3637 86.9316 17.8917 87.0815 17.5959C87.235 17.2932 87.2717 16.9606 87.2061 16.6292C87.1675 16.4342 87.0888 16.252 87.0457 16.0605C87.0094 15.8997 86.9765 15.7476 86.8982 15.6002C86.7498 15.3209 86.4962 15.1202 86.1905 15.0363C86.5087 14.7429 86.7723 14.3919 86.9548 13.9996C87.1443 13.592 87.305 13.0963 87.3506 12.649C87.3876 12.2856 87.3304 11.9092 87.1315 11.5969C86.9229 11.2694 86.5532 11.0557 86.2334 10.8513C86.7219 10.4691 87.1401 10.0042 87.4838 9.48957C88.1523 8.48871 88.5658 7.2271 88.2263 6.03387Z" fill="#191847"/>
<path fill-rule="evenodd" clip-rule="evenodd" d="M57.5372 93.5418L83.5317 162.325L101.752 213.021H112.141L87.0956 93.5418L57.5372 93.5418Z" fill="#1F28CF"/>
<path fill-rule="evenodd" clip-rule="evenodd" d="M51.1127 93.5418C50.8301 117.143 51.0344 148.917 50.376 150.388C49.9371 151.369 36.2854 162.544 9.42099 183.912L14.7759 193.018C46.6702 172.45 63.4327 160.796 65.0633 158.056C67.5092 153.945 79.7974 116.12 86.1907 93.5418H51.1127Z" fill="#2B44FF"/>
<path fill-rule="evenodd" clip-rule="evenodd" d="M6.94804e-06 190.04L9.04462 183.156L16.3424 191.853C16.9037 198.41 19.0745 205.763 22.8548 213.913L21.1982 215.303L7.99277 199.565L4.30342 193.486L3.47512 194.181L6.94804e-06 190.04Z" fill="#191847"/>
<path fill-rule="evenodd" clip-rule="evenodd" d="M100.788 222.753L101.328 211.4H112.682C118.065 215.184 125.093 218.248 133.766 220.59V222.753H113.222L106.194 221.672V222.753H100.788Z" fill="#191847"/>
<path fill-rule="evenodd" clip-rule="evenodd" d="M104.03 72.0776L125.376 69.166C129.646 66.7909 133.574 65.183 137.16 64.3423C138.17 64.3129 139.775 64.6798 137.383 66.6737C134.992 68.6676 132.565 70.8733 132.991 71.9374C133.417 73.0016 135.641 72.6056 136.01 74.2424C136.255 75.3335 132.646 75.5108 125.18 74.7743L107.86 81.641L104.03 72.0776ZM36.9754 77.0184L48.8138 77.0628C35.8326 106.275 29.064 121.57 28.5081 122.948C27.2571 126.049 29.9043 130.77 31.0364 133.308C27.3493 134.957 27.7421 128.847 23.0909 131.011C18.8455 132.986 15.616 136.565 10.7111 133.539C10.108 133.166 9.44719 131.765 11.0438 130.671C15.0217 127.943 20.754 123.169 21.5285 121.598C22.5847 119.455 27.7337 104.595 36.9754 77.0184Z" fill="#997659"/>
<path fill-rule="evenodd" clip-rule="evenodd" d="M69.4022 39.4717L78.6713 40.0892C80.9541 60.742 93.3884 73.7871 121.228 69.3708L124.927 95.967C98.9063 99.3298 76.0864 88.9124 71.4096 60.7069C70.1989 53.4054 69.243 45.8067 69.4022 39.4717Z" fill="#AFB9C5"/>
<path fill-rule="evenodd" clip-rule="evenodd" d="M64.8293 36.7772L78.8731 39.9936C78.8731 64.1485 86.5676 79.5598 90.5142 97.3193H52.5855C52.0512 103.456 51.7231 109.763 51.5521 116.241H23.1524C29.5879 81.9999 43.1712 55.509 63.9021 36.7686H64.8219L64.8293 36.7772Z" fill="#C5CFD6"/>
<path fill-rule="evenodd" clip-rule="evenodd" d="M58.5696 62.859C57.5922 77.9109 58.167 89.3976 60.2942 97.3193H52.5855C53.6439 85.1626 55.5115 73.6758 58.5696 62.859L58.5696 62.859Z" fill="black" fill-opacity="0.1"/>
</svg>
